<?xml version="1.0" standalone="no"?>
<!DOCTYPE svg PUBLIC "-//W3C//DTD SVG 20010904//EN"
 "http://www.w3.org/TR/2001/REC-SVG-20010904/DTD/svg10.dtd">
<svg version="1.0" xmlns="http://www.w3.org/2000/svg"
 width="82.000000pt" height="82.000000pt" viewBox="0 0 82.000000 82.000000"
 preserveAspectRatio="xMidYMid meet">
<metadata>
Created by potrace 1.14, written by Peter Selinger 2001-2017
</metadata>
<g transform="translate(0.000000,82.000000) scale(0.100000,-0.100000)"
fill="#000000" stroke="none">
<path d="M237 807 c-14 -4 -28 -15 -31 -22 -5 -14 -8 -236 -7 -456 1 -132 -19
-124 293 -125 252 -1 292 3 310 30 4 6 8 131 8 277 0 256 -1 267 -21 285 -19
17 -41 18 -273 19 -140 0 -265 -3 -279 -8z m481 -94 c10 -22 9 -394 -2 -411
-11 -17 -411 -17 -423 1 -11 17 -11 399 0 415 7 9 62 12 213 12 184 0 204 -2
212 -17z"/>
<path d="M20 151 c-12 -23 -11 -99 2 -123 7 -14 22 -18 66 -18 32 0 63 5 70
12 16 16 16 120 0 136 -7 7 -38 12 -70 12 -46 0 -59 -4 -68 -19z"/>
</g>
</svg>
