<svg width="16" height="16" viewBox="0 0 16 16" fill="none" xmlns="http://www.w3.org/2000/svg">
<path d="M7.9999 15.575C7.86657 15.575 7.74157 15.554 7.6249 15.512C7.50824 15.4707 7.3999 15.4 7.2999 15.3L0.699902 8.7C0.499902 8.5 0.399902 8.26233 0.399902 7.987C0.399902 7.71233 0.499902 7.475 0.699902 7.275C0.899902 7.075 1.13324 6.975 1.3999 6.975C1.66657 6.975 1.8999 7.075 2.0999 7.275L6.9999 12.175V0.975C6.9999 0.691667 7.0959 0.458333 7.2879 0.275C7.47924 0.0916668 7.71657 0 7.9999 0C8.28324 0 8.5209 0.0956668 8.7129 0.287C8.90424 0.479 8.9999 0.716667 8.9999 1V12.175L13.8999 7.275C14.0999 7.075 14.3332 6.975 14.5999 6.975C14.8666 6.975 15.0999 7.075 15.2999 7.275C15.4999 7.475 15.5999 7.71233 15.5999 7.987C15.5999 8.26233 15.4999 8.5 15.2999 8.7L8.6999 15.3C8.5999 15.4 8.49157 15.4707 8.3749 15.512C8.25824 15.554 8.13324 15.575 7.9999 15.575Z" fill="#D67F33"/>
</svg>
