<svg width="177" height="34" viewBox="0 0 177 34" fill="none" xmlns="http://www.w3.org/2000/svg">
<path d="M5.84584 0.671143L2.98463 17.0184L0.757812 29.7018H6.7219L8.90988 17.2946L11.8142 0.671143H5.84584Z" fill="white"/>
<path d="M27.5616 9.81574L27.2034 11.926C25.9821 10.148 24.1264 9.25903 21.6364 9.25903C18.6932 9.25903 16.2203 10.2473 14.2179 12.2238C12.2155 14.2003 10.964 16.5523 10.4591 19.284C9.9024 22.1711 10.3124 24.7259 11.6933 26.9398C13.07 29.1537 15.2839 30.2585 18.335 30.2585C20.7991 30.2585 22.7886 29.6241 24.299 28.351L24.0617 29.7018H30.0258L33.5257 9.81574H27.5616ZM25.8095 19.7588V19.8019C25.5462 21.2606 24.8946 22.4258 23.8632 23.2975C22.8274 24.1735 21.6191 24.6137 20.2424 24.6137C18.8658 24.6137 17.8171 24.1735 17.1007 23.2975C16.3843 22.4258 16.1599 21.2433 16.4232 19.7588C16.6907 18.2742 17.3338 17.0961 18.3522 16.22C19.375 15.344 20.5747 14.9081 21.9514 14.9081C23.328 14.9081 24.3854 15.344 25.1147 16.22C25.844 17.0961 26.0771 18.2742 25.8095 19.7588Z" fill="white"/>
<path d="M38.0621 0.671265L35.1965 17.0185L32.9697 29.7019H38.9338L41.1218 17.2947L44.0261 0.671265H38.0621Z" fill="white"/>
<path d="M59.7723 9.81574L59.4141 11.926C58.1971 10.148 56.3371 9.25903 53.847 9.25903C50.9038 9.25903 48.431 10.2473 46.4286 12.2238C44.4262 14.2003 43.1747 16.5523 42.6698 19.284C42.1131 22.1711 42.5274 24.7259 43.904 26.9398C45.2807 29.1537 47.4945 30.2585 50.5456 30.2585C53.0141 30.2585 54.9993 29.6241 56.514 28.351L56.2724 29.7018H62.2364L65.7407 9.81574H59.7723ZM58.0245 19.7588V19.8019C57.7569 21.2606 57.1096 22.4258 56.0738 23.2975C55.0381 24.1735 53.8341 24.6137 52.4574 24.6137C51.0807 24.6137 50.0278 24.1735 49.3114 23.2975C48.5993 22.4258 48.3706 21.2433 48.6382 19.7588C48.9014 18.2742 49.5444 17.0961 50.5672 16.22C51.5857 15.344 52.7854 14.9081 54.1664 14.9081C55.5473 14.9081 56.596 15.344 57.3253 16.22C58.0547 17.0961 58.2877 18.2742 58.0245 19.7588Z" fill="white"/>
<path d="M74.9011 17.573C74.3919 16.9343 73.71 16.615 72.8469 16.615C71.9838 16.615 71.1423 16.9084 70.4475 17.491C69.7527 18.078 69.3298 18.8116 69.1744 19.692C69.019 20.5508 69.1917 21.3017 69.6879 21.9404C70.1842 22.5834 70.8618 22.9027 71.7206 22.9027C72.67 22.9027 73.4856 22.6093 74.1718 22.0224C74.8537 21.4398 75.2722 20.7061 75.4276 19.8257C75.583 18.9626 75.406 18.2117 74.9011 17.573Z" fill="#ADFF00"/>
<path d="M85.4176 29.9321C83.116 29.9321 81.2199 29.4169 79.7293 28.3867C78.2607 27.3345 77.5264 25.8659 77.5264 23.9808C77.5264 23.7835 77.5483 23.4876 77.5921 23.093H82.294C82.2063 24.0137 82.4474 24.7699 83.0173 25.3617C83.6092 25.9536 84.464 26.2495 85.582 26.2495C86.6999 26.2495 87.5767 26.0193 88.2124 25.559C88.87 25.0768 89.1988 24.3973 89.1988 23.5205C89.1988 22.7094 88.859 22.0628 88.1795 21.5805C87.5219 21.0983 86.4807 20.5613 85.0559 19.9694C83.7407 19.4214 82.6666 18.9173 81.8336 18.4569C81.0226 17.9966 80.3212 17.3609 79.7293 16.5499C79.1594 15.7169 78.8744 14.6757 78.8744 13.4263C78.8744 12.0015 79.2361 10.763 79.9595 9.71085C80.7048 8.65869 81.7131 7.84765 82.9844 7.27773C84.2777 6.70781 85.7464 6.42285 87.3904 6.42285C89.0124 6.42285 90.4153 6.69685 91.599 7.24485C92.8046 7.77093 93.7033 8.52717 94.2952 9.51357C94.9089 10.5 95.172 11.6508 95.0843 12.966H90.1852L90.218 12.6043C90.218 11.8809 89.944 11.2891 89.396 10.8288C88.87 10.3685 88.1247 10.1383 87.1602 10.1383C86.13 10.1383 85.297 10.3794 84.6613 10.8617C84.0256 11.3439 83.7078 12.0015 83.7078 12.8345C83.7078 13.3825 83.8832 13.8647 84.2339 14.2812C84.6065 14.6757 85.0559 15.0265 85.582 15.3333C86.108 15.6183 86.8643 15.9909 87.8507 16.4513C89.144 17.0212 90.2071 17.5582 91.04 18.0624C91.873 18.5665 92.5854 19.2351 93.1772 20.0681C93.7691 20.901 94.065 21.9203 94.065 23.1259C94.065 24.4411 93.7033 25.6138 92.98 26.6441C92.2785 27.6743 91.2702 28.4853 89.955 29.0772C88.6617 29.6471 87.1492 29.9321 85.4176 29.9321Z" fill="#ADFF00"/>
<path d="M115.81 6.75165L115.153 10.3685H109.07L105.65 29.7019H101.014L104.434 10.3685H98.3181L98.9757 6.75165H115.81Z" fill="#ADFF00"/>
<path d="M150.004 6.75165C152.35 6.75165 154.125 7.28869 155.331 8.36277C156.537 9.41493 157.139 10.7959 157.139 12.5057C157.139 12.9221 157.106 13.3496 157.041 13.788C156.778 15.2785 156.098 16.6376 155.002 17.8651C153.928 19.0707 152.481 19.9146 150.662 20.3969L154.509 29.7019H149.15L145.73 20.7585H143.527L141.949 29.7019H137.313L141.39 6.75165H150.004ZM152.306 13.8866C152.35 13.4921 152.372 13.229 152.372 13.0975C152.372 12.2645 152.109 11.6179 151.583 11.1576C151.057 10.6973 150.257 10.4671 149.182 10.4671H145.335L144.119 17.339H147.966C149.193 17.339 150.169 17.0321 150.892 16.4184C151.637 15.8046 152.109 14.9607 152.306 13.8866Z" fill="#ADFF00"/>
<path d="M166.432 29.9321C164.13 29.9321 162.234 29.4169 160.744 28.3867C159.275 27.3345 158.541 25.8659 158.541 23.9808C158.541 23.7835 158.563 23.4876 158.607 23.093H163.308C163.221 24.0137 163.462 24.7699 164.032 25.3617C164.624 25.9536 165.479 26.2495 166.596 26.2495C167.714 26.2495 168.591 26.0193 169.227 25.559C169.884 25.0768 170.213 24.3973 170.213 23.5205C170.213 22.7094 169.874 22.0628 169.194 21.5805C168.536 21.0983 167.495 20.5613 166.07 19.9694C164.755 19.4214 163.681 18.9173 162.848 18.4569C162.037 17.9966 161.336 17.3609 160.744 16.5499C160.174 15.7169 159.889 14.6757 159.889 13.4263C159.889 12.0015 160.251 10.763 160.974 9.71085C161.719 8.65869 162.728 7.84765 163.999 7.27773C165.292 6.70781 166.761 6.42285 168.405 6.42285C170.027 6.42285 171.43 6.69685 172.614 7.24485C173.819 7.77093 174.718 8.52717 175.31 9.51357C175.923 10.5 176.186 11.6508 176.099 12.966H171.2L171.233 12.6043C171.233 11.8809 170.959 11.2891 170.411 10.8288C169.884 10.3685 169.139 10.1383 168.175 10.1383C167.144 10.1383 166.312 10.3794 165.676 10.8617C165.04 11.3439 164.722 12.0015 164.722 12.8345C164.722 13.3825 164.898 13.8647 165.248 14.2812C165.621 14.6757 166.07 15.0265 166.596 15.3333C167.123 15.6183 167.879 15.9909 168.865 16.4513C170.158 17.0212 171.222 17.5582 172.055 18.0624C172.888 18.5665 173.6 19.2351 174.192 20.0681C174.784 20.901 175.08 21.9203 175.08 23.1259C175.08 24.4411 174.718 25.6138 173.994 26.6441C173.293 27.6743 172.285 28.4853 170.97 29.0772C169.676 29.6471 168.164 29.9321 166.432 29.9321Z" fill="#ADFF00"/>
<path d="M114.575 32.3548C116.714 26.8671 117.321 25.7329 119.714 20.3524C121.592 16.132 122.034 15.1679 119.783 19.7039C118.766 21.7528 117.789 23.8217 116.762 25.8653C116.242 26.8998 116.259 28.6391 115.14 28.9375C114.13 29.207 115.854 26.9702 116.25 26.0018C116.734 24.8175 122.031 12.2945 122.497 11.1871C123.314 9.24407 124.501 6.46868 125.33 4.29182C125.523 3.78285 125.351 4.06972 125.364 4.18942C125.842 8.53539 127.042 12.9715 127.958 17.212C128.777 21.0022 129.649 24.7814 130.433 28.579C130.875 30.7186 129.485 24.3124 129.102 22.1616C128.527 18.9354 127.464 12.9161 127.446 9.3609C127.444 8.93074 127.658 7.78701 127.89 8.1491C128.584 9.23212 128.721 10.5875 129.033 11.8357C129.707 14.5282 130.665 19.4844 131.064 22.4006C131.508 25.6319 130.47 21.8907 130.262 21.2741C129.404 18.7254 126.834 11.0943 127.446 13.7131C127.801 15.2325 129.492 19.9258 129.836 20.9498C130.299 22.3313 132.211 25.8726 130.928 25.1826C130.229 24.8069 129.872 23.9975 129.324 23.4246C126.582 20.5627 125.563 19.4542 122.223 17.0413C120.542 15.8266 118.348 15.3165 116.881 13.8497C115.7 12.6683 120.006 15.033 121.575 15.6077C122.709 16.023 123.846 16.4297 124.988 16.8195C125.314 16.9305 126.281 17.272 125.978 17.1096C125.36 16.7783 124.685 16.565 124.033 16.3074C122.513 15.7076 118.366 14.1029 116.728 13.5766C114.171 12.7552 116.201 13.761 117.103 14.2252C117.218 14.284 121.775 16.4214 122.326 16.956C123.322 17.9233 119.639 16.2142 118.366 15.6589C117.462 15.2643 114.885 13.9213 115.601 14.6007C131.726 29.9054 121.856 19.7039 123.384 21.5984C124.774 22.9505 126.125 24.3435 127.446 25.7629C128.117 26.4838 128.802 27.2027 129.358 28.0158C129.61 28.3848 128.674 27.4372 128.368 27.1112C124.04 22.4968 120.164 17.4624 115.789 12.8939C115.642 12.741 114.981 12.7082 115.157 12.8256C115.64 13.1475 116.319 12.8622 116.898 12.8256C119.809 12.6417 121.92 12.3994 124.92 11.9723C126.756 11.7108 128.585 11.3968 130.416 11.1018C131.976 10.8506 133.528 10.5516 135.092 10.3338C135.777 10.2385 136.497 9.96276 137.158 10.1631C138.744 10.6438 134.023 11.2814 132.396 11.5968C129.473 12.1631 126.329 12.6186 123.333 12.655C120.485 12.6895 122.078 12.2238 123.504 11.9893C125.303 11.6931 128.408 11.4371 130.296 11.3407C132.239 11.2417 122.571 12.2303 124.51 12.0917C128.543 11.8037 132.638 10.7378 136.663 10.6751C139.794 10.6263 136.356 12.7675 135.707 13.3035C115.798 29.7461 146.465 3.64256 124.203 22.4176C122.721 23.6674 121.28 24.9646 119.851 26.2749C118.929 27.1209 116.529 29.7218 120.312 25.9165C122.427 23.7891 126.37 19.6391 128.385 17.5192C129.379 16.4732 132.209 13.6009 129.836 15.8466C126.599 18.9089 123.354 21.9614 120.107 25.0119C117.417 27.539 131.203 15.2758 128.368 17.6387C124.451 20.9031 120.705 24.3857 116.898 27.7769C115.342 29.1629 119.828 24.8128 121.302 23.3393" stroke="#ADFF00" stroke-width="2" stroke-linecap="square"/>
</svg>
