<svg width="47" height="47" viewBox="0 0 47 47" fill="none" xmlns="http://www.w3.org/2000/svg">
<path d="M7.83317 3.9165H39.1665C40.2053 3.9165 41.2015 4.32915 41.936 5.06367C42.6705 5.79819 43.0832 6.79441 43.0832 7.83317V31.3332C43.0832 32.3719 42.6705 33.3682 41.936 34.1027C41.2015 34.8372 40.2053 35.2498 39.1665 35.2498H31.3332L23.4998 43.0832L15.6665 35.2498H7.83317C6.79441 35.2498 5.79819 34.8372 5.06367 34.1027C4.32915 33.3682 3.9165 32.3719 3.9165 31.3332V7.83317C3.9165 6.79441 4.32915 5.79819 5.06367 5.06367C5.79819 4.32915 6.79441 3.9165 7.83317 3.9165ZM21.5415 11.7498V17.6248H15.6665V21.5415H21.5415V27.4165H25.4582V21.5415H31.3332V17.6248H25.4582V11.7498H21.5415Z" fill="#0430B4"/>
</svg>
