<?xml version="1.0" encoding="utf-8"?>
<!-- Generator: Adobe Illustrator 25.4.1, SVG Export Plug-In . SVG Version: 6.00 Build 0)  -->
<svg version="1.1" id="Шар_1" xmlns="http://www.w3.org/2000/svg" xmlns:xlink="http://www.w3.org/1999/xlink" x="0px" y="0px"
	 viewBox="0 0 280.67 133.02" style="enable-background:new 0 0 280.67 133.02;" xml:space="preserve">
<style type="text/css">
	.st0{fill:#394B63;}
	.st1{fill:url(#SVGID_1_);}
	.st2{fill:#1F344B;}
	.st3{fill:#FFB743;}
	.st4{fill:none;}
	.st5{fill:url(#SVGID_00000114757138395016765350000009583576902033738899_);}
	.st6{fill:#2B3F58;}
	.st7{fill:url(#SVGID_00000095331835826329013790000009391869951169276290_);}
	.st8{fill:#303030;}
	.st9{fill:#3C3C3C;}
	.st10{fill:url(#SVGID_00000176044781625299297570000015373113819988017062_);}
	.st11{fill:none;stroke:#1F344B;stroke-width:3;stroke-miterlimit:10;}
	.st12{fill:url(#SVGID_00000031929761037977990220000001455879512050351748_);}
	.st13{fill:#FFFFFF;}
</style>
<g>
	<rect class="st4" width="280.67" height="133.02"/>
	<g>
		<linearGradient id="SVGID_1_" gradientUnits="userSpaceOnUse" x1="32.5136" y1="66.5097" x2="149.3205" y2="66.5097">
			<stop  offset="0" style="stop-color:#FEB12E"/>
			<stop  offset="1" style="stop-color:#FDEB30"/>
		</linearGradient>
		<path class="st1" d="M142.19,100.51H39.64c-3.94,0-7.13-3.19-7.13-7.13V39.64c0-3.94,3.19-7.13,7.13-7.13h102.55
			c3.94,0,7.13,3.19,7.13,7.13v53.74C149.32,97.32,146.13,100.51,142.19,100.51z"/>
		<path class="st2" d="M86.57,78.39H55.43v-7.44c0-3.79,2.66-6.34,6.61-6.34h18.32c1.3,0,2.36-1.06,2.36-2.36
			c0-1.3-1.06-2.36-2.36-2.36H55.29v-4.53h25.07c3.8,0,6.89,3.09,6.89,6.89s-3.09,6.89-6.89,6.89H62.04c-1.44,0-2.08,0.56-2.08,1.81
			v2.92h26.62V78.39z"/>
		<polygon class="st2" points="126.65,77.92 122.12,77.92 122.12,69.14 94.13,69.14 94.13,55.78 98.66,55.78 98.66,64.61 
			122.12,64.61 122.12,55.78 126.65,55.78 		"/>
		<path class="st6" d="M172.1,71.26c0,8.78,7.12,15.9,15.9,15.9c8.78,0,15.9-7.12,15.9-15.9V47.26h-7.03v24.01
			c0,4.9-3.97,8.87-8.87,8.87s-8.87-3.97-8.87-8.87V47.26h-7.03V71.26z"/>
		<path class="st6" d="M228.72,47.26l-2.66,0l-19.44,39.41h8.27l3.2-7.05h18.62l3.89,7.05h7.57L228.72,47.26z M220.89,73.53
			l6.59-13.81l6.53,13.81H220.89z"/>
	</g>
</g>
</svg>
