<svg width="17" height="17" viewBox="0 0 17 17" fill="none" xmlns="http://www.w3.org/2000/svg">
<path d="M11.3198 8.65594C11.3198 9.18282 11.1635 9.69787 10.8708 10.136C10.5781 10.574 10.162 10.9155 9.67527 11.1171C9.18849 11.3187 8.65286 11.3715 8.1361 11.2687C7.61934 11.1659 7.14467 10.9122 6.77211 10.5396C6.39955 10.1671 6.14583 9.69241 6.04304 9.17565C5.94025 8.65889 5.993 8.12326 6.19463 7.63648C6.39626 7.14971 6.73771 6.73365 7.1758 6.44093C7.61388 6.14821 8.12893 5.99197 8.65581 5.99197C9.36167 5.99417 10.038 6.27554 10.5371 6.77466C11.0362 7.27377 11.3176 7.95009 11.3198 8.65594V8.65594ZM16.9807 4.99299V12.3189C16.9807 13.5553 16.4895 14.7411 15.6152 15.6154C14.741 16.4897 13.5552 16.9808 12.3188 16.9808H4.99287C3.75644 16.9808 2.57066 16.4897 1.69638 15.6154C0.822099 14.7411 0.330933 13.5553 0.330933 12.3189V4.99299C0.330933 3.75657 0.822099 2.57079 1.69638 1.6965C2.57066 0.822221 3.75644 0.331055 4.99287 0.331055H12.3188C13.5552 0.331055 14.741 0.822221 15.6152 1.6965C16.4895 2.57079 16.9807 3.75657 16.9807 4.99299V4.99299ZM12.6518 8.65594C12.6518 7.86561 12.4174 7.09304 11.9783 6.43591C11.5392 5.77878 10.9152 5.26661 10.185 4.96417C9.45483 4.66172 8.65138 4.58259 7.87624 4.73677C7.10111 4.89096 6.3891 5.27154 5.83026 5.83038C5.27141 6.38922 4.89084 7.10123 4.73665 7.87637C4.58247 8.6515 4.6616 9.45495 4.96404 10.1851C5.26649 10.9153 5.77866 11.5394 6.43579 11.9784C7.09292 12.4175 7.86549 12.6519 8.65581 12.6519C9.7156 12.6519 10.732 12.2309 11.4814 11.4815C12.2308 10.7321 12.6518 9.71573 12.6518 8.65594ZM13.9837 4.327C13.9837 4.12942 13.9251 3.93627 13.8154 3.77199C13.7056 3.60771 13.5496 3.47967 13.367 3.40406C13.1845 3.32844 12.9836 3.30866 12.7899 3.34721C12.5961 3.38575 12.4181 3.4809 12.2784 3.62061C12.1387 3.76032 12.0435 3.93832 12.005 4.13211C11.9664 4.32589 11.9862 4.52675 12.0618 4.70929C12.1374 4.89183 12.2655 5.04785 12.4297 5.15762C12.594 5.26739 12.7872 5.32598 12.9848 5.32598C13.2497 5.32598 13.5038 5.22073 13.6911 5.03339C13.8785 4.84604 13.9837 4.59195 13.9837 4.327Z" fill="#101E32"/>
</svg>
