<svg width="39" height="42" viewBox="0 0 39 42" fill="none" xmlns="http://www.w3.org/2000/svg">
<path d="M3.38201 19.9189H7.32795C7.71336 19.9189 8.06492 20.0764 8.31785 20.3293C8.57078 20.5823 8.72832 20.9328 8.72832 21.3186V36.3617C8.72832 36.7474 8.57078 37.098 8.31785 37.3509C8.06492 37.6038 7.71337 37.7614 7.32795 37.7614H3.38201C2.99628 37.7614 2.6457 37.6038 2.39278 37.3509C2.13985 37.098 1.9823 36.7474 1.9823 36.3617V21.3186C1.9823 20.9328 2.13985 20.5823 2.39278 20.3293C2.64571 20.0764 2.99628 19.9189 3.38201 19.9189ZM32.9949 1.6689e-05C33.5346 1.6689e-05 34.0254 0.220388 34.3813 0.575524C34.7383 0.934243 34.959 1.42476 34.959 1.96383C34.959 2.50354 34.7387 2.9944 34.3835 3.35023C34.0248 3.70732 33.5343 3.92802 32.9952 3.92802C32.6079 3.92802 32.2446 3.81441 31.9396 3.61878L25.4804 9.80293C25.649 10.093 25.7453 10.4292 25.7453 10.7863C25.7453 11.3286 25.525 11.8205 25.1698 12.1753L25.1379 12.2046C24.7851 12.5425 24.3062 12.7508 23.7815 12.7508C23.2415 12.7508 22.7496 12.5298 22.3942 12.1743C22.0381 11.8205 21.8177 11.3289 21.8177 10.7864L21.8203 10.691L16.2644 9.04418C16.1791 9.18968 16.0753 9.32347 15.9568 9.4426C15.5981 9.7997 15.1076 10.0204 14.5685 10.0204C14.0415 10.0204 13.562 9.81206 13.2098 9.47483L7.21344 13.3023C7.28245 13.5012 7.31923 13.7157 7.31923 13.9373C7.31923 14.4774 7.09821 14.9692 6.74274 15.3247C6.38891 15.6808 5.89734 15.9011 5.35477 15.9011C4.81506 15.9011 4.3242 15.6808 3.96837 15.3256C3.61128 14.9669 3.39058 14.4764 3.39058 13.9373C3.39058 13.3976 3.61095 12.9068 3.96609 12.5509C4.32481 12.1938 4.81532 11.9731 5.3544 11.9731C5.88141 11.9731 6.36088 12.1815 6.71313 12.5187L12.7094 8.69127C12.6417 8.49238 12.6043 8.27852 12.6043 8.05619C12.6043 7.51388 12.8247 7.02204 13.1798 6.66721L13.2117 6.63792C13.5646 6.30003 14.0434 6.0917 14.5681 6.0917C15.1081 6.0917 15.6 6.31272 15.9554 6.66819C16.3115 7.02203 16.5319 7.51359 16.5319 8.05617L16.5293 8.15154L22.0835 9.79835C22.1695 9.65187 22.2736 9.51613 22.3928 9.39699C22.7473 9.0425 23.2388 8.82213 23.7811 8.82213C24.1691 8.82213 24.5324 8.93574 24.8371 9.13072L31.2963 2.94657C31.127 2.65621 31.0307 2.32028 31.0307 1.96383C31.0307 1.42153 31.2511 0.929685 31.6062 0.574857C31.9607 0.220371 32.4522 0 32.9945 0L32.9949 1.6689e-05ZM24.5117 10.0565C24.3255 9.8713 24.067 9.75607 23.7819 9.75607C23.4974 9.75607 23.2396 9.87195 23.0537 10.0575C22.8675 10.2437 22.7516 10.5018 22.7516 10.786C22.7516 11.0705 22.8675 11.3283 23.0537 11.5145C23.2379 11.7014 23.4964 11.8166 23.7819 11.8166C24.0563 11.8166 24.3056 11.7101 24.4879 11.5383L24.51 11.5145C24.6962 11.3283 24.8121 11.0702 24.8121 10.786C24.8121 10.5012 24.6969 10.2424 24.5117 10.0562V10.0565ZM6.08447 13.2088C5.89827 13.0226 5.64014 12.9067 5.35596 12.9067C5.07048 12.9067 4.81203 13.022 4.62778 13.2065C4.44094 13.3927 4.32571 13.6512 4.32571 13.937C4.32571 14.2225 4.44094 14.4809 4.62551 14.6652C4.81171 14.852 5.07016 14.9672 5.35596 14.9672C5.64047 14.9672 5.89827 14.8514 6.08447 14.6652C6.27132 14.4809 6.38655 14.2225 6.38655 13.937C6.38655 13.6626 6.28011 13.4132 6.10823 13.2309L6.08447 13.2088ZM1.37429 39.25H36.9779C37.3539 39.25 37.6976 39.4043 37.9469 39.6534C38.1982 39.9053 38.3525 40.249 38.3525 40.6243C38.3525 41.0013 38.1982 41.3454 37.9492 41.5944C37.6973 41.8457 37.3535 42 36.9783 42H1.37466C0.998692 42 0.654947 41.8457 0.405593 41.5967C0.154297 41.3447 0 41.001 0 40.6257C0 40.2488 0.154297 39.9047 0.40331 39.6556C0.655256 39.4043 0.999 39.25 1.37429 39.25ZM36.9779 40.1836H1.37429C1.25255 40.1836 1.14155 40.2328 1.06342 40.3115C0.98237 40.3919 0.933217 40.503 0.933217 40.6247C0.933217 40.7477 0.98237 40.8584 1.06115 40.9365C1.14155 41.0176 1.25255 41.0667 1.37429 41.0667H36.9779C37.0996 41.0667 37.2106 41.0176 37.2888 40.9388C37.3698 40.8584 37.419 40.7474 37.419 40.6257C37.419 40.5026 37.3698 40.3919 37.291 40.3138C37.2106 40.2328 37.0996 40.1836 36.9779 40.1836ZM31.0236 7.94664H34.9695C35.3552 7.94664 35.7058 8.10418 35.9587 8.35711C36.2117 8.61004 36.3692 8.96062 36.3692 9.34635V36.3626C36.3692 36.7467 36.2117 37.0966 35.9574 37.3502C35.7055 37.6045 35.3549 37.762 34.9692 37.762H31.0233C30.6379 37.762 30.2863 37.6045 30.0334 37.3515L30.0024 37.3173C29.7671 37.067 29.6226 36.7304 29.6226 36.3626V9.34639C29.6226 8.96065 29.7801 8.61007 30.033 8.35715C30.286 8.10423 30.6375 7.94667 31.0229 7.94667L31.0236 7.94664ZM34.9695 8.88021H31.0236C30.8956 8.88021 30.7784 8.93326 30.6938 9.01757C30.6095 9.10188 30.5565 9.21874 30.5565 9.34666V36.3629C30.5565 36.4824 30.6017 36.5917 30.674 36.6728L30.6938 36.6917C30.7781 36.776 30.8956 36.829 31.0236 36.829H34.9695C35.0974 36.829 35.2143 36.776 35.2986 36.6917C35.3836 36.609 35.436 36.4921 35.436 36.3632V9.347C35.436 9.21906 35.3829 9.10221 35.2986 9.0179C35.2143 8.93359 35.0974 8.88054 34.9695 8.88054L34.9695 8.88021ZM21.8105 16.7687H25.7565C26.1422 16.7687 26.4928 16.9263 26.7457 17.1792C26.9986 17.4321 27.1562 17.7827 27.1562 18.1685V36.3615C27.1562 36.7472 26.9986 37.0978 26.7457 37.3507C26.4928 37.6037 26.1422 37.7612 25.7565 37.7612H21.8105C21.4251 37.7612 21.0736 37.6037 20.8206 37.3507C20.5677 37.0978 20.4102 36.7472 20.4102 36.3615V18.1685C20.4102 17.7827 20.5684 17.4321 20.8213 17.1792C21.0742 16.9263 21.4248 16.7687 21.8105 16.7687H21.8105ZM25.7565 17.7023H21.8105C21.6826 17.7023 21.5658 17.7554 21.4814 17.8397C21.3971 17.924 21.3438 18.0415 21.3438 18.1688V36.3618C21.3438 36.4897 21.3968 36.6066 21.4811 36.6909C21.5654 36.7752 21.6829 36.8283 21.8109 36.8283H25.7568C25.8847 36.8283 26.0016 36.7752 26.0859 36.6909C26.1702 36.6066 26.2233 36.4897 26.2233 36.3618V18.1688C26.2233 18.0408 26.1702 17.924 26.0859 17.8397C26.0016 17.7554 25.8847 17.7023 25.7568 17.7023H25.7565ZM12.5975 14.038H16.5435C16.9292 14.038 17.2798 14.1955 17.5327 14.4484C17.7856 14.7014 17.9438 15.0519 17.9438 15.4377V36.3623C17.9438 36.7471 17.7863 37.098 17.5333 37.3512C17.2804 37.6042 16.9289 37.7617 16.5434 37.7617H12.5975C12.2118 37.7617 11.8612 37.6042 11.6083 37.3512L11.5774 37.317C11.342 37.0667 11.1975 36.7301 11.1975 36.3623V15.4377C11.1975 15.0519 11.355 14.7013 11.608 14.4484C11.8609 14.1955 12.2115 14.0379 12.5972 14.0379L12.5975 14.038ZM16.5435 14.9715H12.5975C12.4696 14.9715 12.3527 15.0246 12.2684 15.1089C12.1841 15.1932 12.1311 15.3101 12.1311 15.438V36.3626C12.1311 36.4821 12.1763 36.5915 12.2486 36.6725L12.2684 36.6914C12.3527 36.7757 12.4696 36.8288 12.5975 36.8288H16.5435C16.6714 36.8288 16.7886 36.7757 16.8732 36.6914C16.9575 36.6071 17.0106 36.4902 17.0106 36.363V15.4383C17.0106 15.311 16.9572 15.1935 16.8729 15.1092C16.7886 15.0249 16.6717 14.9719 16.5438 14.9719L16.5435 14.9715ZM7.33028 20.8526H3.38434C3.25641 20.8526 3.13956 20.9057 3.05525 20.99C2.97094 21.0743 2.91789 21.1911 2.91789 21.3191V36.3621C2.91789 36.4901 2.97095 36.6069 3.05525 36.6912C3.13956 36.7755 3.25642 36.8286 3.38434 36.8286H7.33028C7.45821 36.8286 7.57539 36.7755 7.66003 36.6912C7.74433 36.6069 7.79739 36.4901 7.79739 36.3621V21.3191C7.79739 21.1911 7.74433 21.0743 7.66003 20.99C7.57572 20.9057 7.4582 20.8526 7.33028 20.8526Z" fill="#D67F33"/>
</svg>
