<svg width="22" height="22" viewBox="0 0 22 22" fill="none" xmlns="http://www.w3.org/2000/svg">
<path d="M14.0081 10.8386C14.0081 11.3654 13.8519 11.8805 13.5592 12.3186C13.2665 12.7567 12.8504 13.0981 12.3636 13.2997C11.8768 13.5014 11.3412 13.5541 10.8245 13.4513C10.3077 13.3485 9.83302 13.0948 9.46046 12.7223C9.0879 12.3497 8.83418 11.875 8.73139 11.3583C8.6286 10.8415 8.68136 10.3059 8.88299 9.8191C9.08462 9.33232 9.42606 8.91627 9.86415 8.62355C10.3022 8.33083 10.8173 8.17459 11.3442 8.17459C12.05 8.17679 12.7263 8.45816 13.2254 8.95727C13.7246 9.45639 14.0059 10.1327 14.0081 10.8386ZM19.6691 7.17561V14.5015C19.6691 15.7379 19.1779 16.9237 18.3036 17.798C17.4293 18.6723 16.2435 19.1634 15.0071 19.1634H7.68122C6.4448 19.1634 5.25902 18.6723 4.38474 17.798C3.51045 16.9237 3.01929 15.7379 3.01929 14.5015V7.17561C3.01929 5.93918 3.51045 4.7534 4.38474 3.87912C5.25902 3.00484 6.4448 2.51367 7.68122 2.51367H15.0071C16.2435 2.51367 17.4293 3.00484 18.3036 3.87912C19.1779 4.7534 19.6691 5.93918 19.6691 7.17561ZM15.3401 10.8386C15.3401 10.0482 15.1058 9.27566 14.6667 8.61853C14.2276 7.9614 13.6035 7.44923 12.8734 7.14678C12.1432 6.84434 11.3397 6.76521 10.5646 6.91939C9.78946 7.07358 9.07745 7.45415 8.51861 8.013C7.95977 8.57184 7.57919 9.28385 7.42501 10.059C7.27082 10.8341 7.34996 11.6376 7.6524 12.3677C7.95484 13.0979 8.46701 13.722 9.12414 14.1611C9.78127 14.6001 10.5538 14.8345 11.3442 14.8345C12.404 14.8345 13.4203 14.4135 14.1697 13.6641C14.9191 12.9147 15.3401 11.8983 15.3401 10.8386ZM16.6721 6.50961C16.6721 6.31203 16.6135 6.11889 16.5037 5.95461C16.394 5.79033 16.2379 5.66228 16.0554 5.58667C15.8729 5.51106 15.672 5.49128 15.4782 5.52982C15.2844 5.56837 15.1064 5.66351 14.9667 5.80323C14.827 5.94294 14.7319 6.12094 14.6933 6.31472C14.6548 6.50851 14.6746 6.70937 14.7502 6.89191C14.8258 7.07445 14.9538 7.23047 15.1181 7.34024C15.2824 7.45001 15.4755 7.5086 15.6731 7.5086C15.9381 7.5086 16.1922 7.40335 16.3795 7.216C16.5668 7.02866 16.6721 6.77456 16.6721 6.50961Z" fill="#101E32"/>
</svg>
