<svg width="22" height="21" viewBox="0 0 22 21" fill="none" xmlns="http://www.w3.org/2000/svg">
<path d="M11 1.75C5.94004 1.75 1.83337 5.67 1.83337 10.5C1.83337 15.33 5.94004 19.25 11 19.25C16.06 19.25 20.1667 15.33 20.1667 10.5C20.1667 5.67 16.06 1.75 11 1.75ZM15.2534 7.7C15.1159 9.0825 14.52 12.4425 14.2175 13.9913C14.0892 14.6475 13.8325 14.8663 13.5942 14.8925C13.0625 14.9363 12.6592 14.56 12.1459 14.2362C11.3392 13.7288 10.8809 13.4138 10.1017 12.9237C9.19421 12.355 9.78087 12.04 10.3034 11.5325C10.4409 11.4012 12.7875 9.3625 12.8334 9.17875C12.8397 9.15092 12.8389 9.12203 12.8309 9.09458C12.8229 9.06713 12.808 9.04196 12.7875 9.02125C12.7325 8.9775 12.6592 8.995 12.595 9.00375C12.5125 9.02125 11.2292 9.835 8.72671 11.445C8.36004 11.6812 8.03004 11.8038 7.73671 11.795C7.40671 11.7862 6.78337 11.62 6.31587 11.4712C5.73837 11.2962 5.28921 11.2 5.32587 10.8938C5.34421 10.7362 5.57337 10.5787 6.00421 10.4125C8.68087 9.30125 10.4592 8.56625 11.3484 8.21625C13.8967 7.20125 14.4192 7.02625 14.7675 7.02625C14.8409 7.02625 15.015 7.04375 15.125 7.13125C15.2167 7.20125 15.2442 7.2975 15.2534 7.3675C15.2442 7.42 15.2625 7.5775 15.2534 7.7Z" fill="#fff"/>
</svg>
