<svg width="27" height="18" viewBox="0 0 27 18" fill="none" xmlns="http://www.w3.org/2000/svg">
<g clip-path="url(#clip0_548_4071)">
<path d="M0 0H26.5714V18.0002H0V0Z" fill="white"/>
<path d="M14.9464 0H11.625V7.31247H0V10.6875H11.625V17.9999H14.9464V10.6875H26.5714V7.31247H14.9464V0Z" fill="#D80027"/>
<path d="M20.4383 12.1309L26.5733 15.5942V12.1309H20.4383ZM16.1758 12.1309L26.5733 18.0004V16.3406L19.116 12.1309H16.1758ZM23.8038 18.0004L16.1758 13.6939V18.0004H23.8038Z" fill="#0012B4"/>
<path d="M16.1758 12.1309L26.5733 18.0004V16.3406L19.116 12.1309H16.1758Z" fill="white"/>
<path d="M16.1758 12.1309L26.5733 18.0004V16.3406L19.116 12.1309H16.1758Z" fill="#D80027"/>
<path d="M4.68846 12.1309L0 14.7776V12.1309H4.68846ZM10.3975 12.8773V18.0005H1.32291L10.3975 12.8773Z" fill="#0012B4"/>
<path d="M7.45728 12.1309L0 16.3406V18.0004L10.3975 12.1309H7.45728Z" fill="#D80027"/>
<path d="M6.13504 5.86955L0 2.40617V5.86955H6.13504ZM10.3975 5.86955L0 0V1.65976L7.45728 5.86955H10.3975ZM2.76955 0L10.3975 4.3065V0H2.76955Z" fill="#0012B4"/>
<path d="M10.3975 5.86955L0 0V1.65976L7.45728 5.86955H10.3975Z" fill="white"/>
<path d="M10.3975 5.86955L0 0V1.65976L7.45728 5.86955H10.3975Z" fill="#D80027"/>
<path d="M21.8848 5.86961L26.5733 3.22286V5.86961H21.8848ZM16.1758 5.1232V0H25.2504L16.1758 5.1232Z" fill="#0012B4"/>
<path d="M19.116 5.86955L26.5733 1.65976V0L16.1758 5.86955H19.116Z" fill="#D80027"/>
</g>
<defs>
<clipPath id="clip0_548_4071">
<rect width="26.5714" height="18" fill="white"/>
</clipPath>
</defs>
</svg>
