<svg width="567" height="286" viewBox="0 0 567 286" fill="none" xmlns="http://www.w3.org/2000/svg">
<g clip-path="url(#clip0_364_142)">
<path d="M0.000488281 136.747C0.000486116 87.2037 40.3999 46.9503 90.2705 46.9503C140.141 46.9503 180.54 87.2037 180.54 136.894H128.45C128.45 115.809 111.284 98.8523 90.2705 98.8523C69.1086 98.8523 52.0905 115.957 52.0905 136.894C52.0905 157.98 69.2565 174.936 90.2705 174.936C100.777 174.936 110.396 170.66 117.351 163.731C124.307 156.8 128.597 147.364 128.597 136.747C128.597 161.666 137.329 184.52 151.831 202.657C135.553 217.549 113.948 226.691 90.2705 226.691C40.3999 226.691 0.000490454 186.438 0.000488281 136.747Z" fill="#D67F33"/>
<path d="M339.719 136.747H294.482C294.482 166.385 263.508 190.419 233.764 190.419C204.019 190.419 179.898 166.385 179.898 136.747H127.808C127.808 194.989 175.162 242.173 233.616 242.173C292.365 242.321 339.719 194.989 339.719 136.747Z" fill="#032FB4"/>
<path d="M294.277 138.035C294.277 108.398 263.656 83.2228 233.911 83.2228C205.202 83.2228 181.673 105.635 180.193 133.946C179.453 107.995 165.678 88.3405 151.916 68.2877C171.154 48.2345 203.871 31.4683 233.911 31.4683C267.355 31.4683 297.099 46.9504 316.486 70.9848C298.136 88.0891 294.277 112.969 294.277 138.035Z" fill="#032FB4"/>
<path d="M294.278 136.747C294.278 65.2336 352.583 7.13855 424.355 7.13855C496.274 7.13855 554.432 65.2336 554.432 136.747C554.432 208.407 496.126 266.355 424.355 266.355C381.143 266.355 338.611 241.259 314.342 205.871C332.544 186.85 340.139 165.057 340.139 136.747C340.139 179.802 381.143 214.6 424.355 214.6C467.566 214.6 502.49 179.802 502.49 136.747C502.49 93.6912 467.566 58.8933 424.355 58.8933C381.143 58.8933 340.139 93.6912 340.139 136.747H294.278Z" fill="#123568"/>
<path d="M165.974 205.711L179.494 205.563C167.46 192.832 159.735 176.697 157.358 159.525C157.06 157.748 158.249 156.268 160.032 155.972C161.815 155.676 163.301 157.008 163.598 158.636C165.826 174.476 172.957 189.28 183.803 200.974L183.654 187.651L192.717 196.533L192.866 214.297L175.037 214.445L165.974 205.711Z" fill="#E2E2E2"/>
<path d="M320.299 173.976L313.613 162.281C309.304 175.9 301.578 188.187 291.179 197.956C289.842 199.141 287.91 199.141 286.722 197.809C285.534 196.477 285.533 194.552 286.871 193.368C296.379 184.338 303.51 173.087 307.522 160.652L295.933 167.166L299.35 155.027L314.95 146.293L323.715 161.837L320.299 173.976Z" fill="#E2E2E2"/>
<path d="M322.829 113.916C322.531 115.693 321.046 116.877 319.263 116.581C317.48 116.285 316.292 114.656 316.589 113.028C319.858 90.9708 333.823 71.8751 354.028 62.2528L341.548 57.2197L353.137 52.3346L369.628 58.9961L362.942 75.4279L351.354 80.313L356.405 68.026C338.428 76.9082 325.8 93.9315 322.829 113.916Z" fill="#E2E2E2"/>
<path d="M112.46 67.5537C111.123 66.5175 110.826 64.4451 112.015 63.1128C113.055 61.7805 115.135 61.4844 116.472 62.6687C133.854 76.4355 146.78 95.3839 153.02 116.701L159.854 105.154L162.974 117.293L153.911 132.688L138.46 123.658L135.191 111.52L146.631 118.181C140.837 98.1966 128.654 80.4325 112.46 67.5537Z" fill="#E2E2E2"/>
<path d="M69.1238 211.711C70.3165 212.143 70.8591 213.548 70.4248 214.736C69.9911 215.924 68.5817 216.465 67.3889 216.033C15.8819 195.936 0.267197 130.029 38.545 89.5121H28.6773L35.1835 83.0293H48.1957V95.9949L41.6896 102.478V92.7535C6.33959 130.569 20.7615 193.019 69.1238 211.711Z" fill="#E2E2E2"/>
<g filter="url(#filter0_f_364_142)">
<path d="M89.7286 116.768L91.0343 133.037L96.506 117.66L93.5558 133.713L102.821 120.276L95.8175 135.018L108.244 124.437L97.6638 136.864L112.406 129.86L98.9688 139.126L115.022 136.176L99.6448 141.647L115.914 142.953L99.6448 144.259L115.022 149.731L98.9688 146.78L112.406 156.046L97.6638 149.042L108.244 161.469L95.8175 150.888L102.821 165.63L93.5558 152.193L96.506 168.246L91.0343 152.869L89.7286 169.139L88.4228 152.869L82.9511 168.246L85.9013 152.193L76.6359 165.63L83.6396 150.888L71.2124 161.469L81.7934 149.042L67.0514 156.046L80.4883 146.78L64.4355 149.731L79.8123 144.259L63.5432 142.953L79.8123 141.647L64.4355 136.176L80.4883 139.126L67.0514 129.86L81.7934 136.864L71.2124 124.437L83.6396 135.018L76.6359 120.276L85.9013 133.713L82.9511 117.66L88.4228 133.037L89.7286 116.768Z" fill="#446DA9"/>
</g>
<path d="M72.7299 143.505C76.435 143.505 79.1806 140.928 79.1806 137.408C79.1806 133.888 76.435 131.311 72.7299 131.311C69.0077 131.311 66.2793 133.904 66.2793 137.408C66.2793 140.911 69.0077 143.505 72.7299 143.505ZM72.7299 141.18C70.6246 141.18 69.0414 139.648 69.0414 137.408C69.0414 135.168 70.6246 133.635 72.7299 133.635C74.8352 133.635 76.4182 135.168 76.4182 137.408C76.4182 139.648 74.8352 141.18 72.7299 141.18ZM81.0799 134.242V143.303H83.6907V136.397H87.4635V143.303H90.0904V134.242H81.0799ZM97.3762 137.138H95.22V134.242H92.6098V143.303L97.0222 143.319C99.5486 143.319 100.963 142.157 100.963 140.153C100.963 138.25 99.7511 137.155 97.3762 137.138ZM101.94 143.303H104.551V134.242H101.94V143.303ZM96.7869 141.45H95.22V138.822L96.7869 138.839C97.7973 138.857 98.3531 139.227 98.3531 140.12C98.3531 141.012 97.7973 141.467 96.7869 141.45ZM114.696 134.242H105.955V136.397H109.021V143.303H111.631V136.397H114.696V134.242Z" fill="white"/>
<g filter="url(#filter1_f_364_142)">
<path d="M238.205 92.3282L240.473 120.586L249.976 93.8777L244.853 121.76L260.946 98.4214L248.781 124.027L270.365 105.649L251.987 127.234L277.593 115.069L254.255 131.161L282.137 126.038L255.429 135.542L283.686 137.81L255.429 140.077L282.137 149.581L254.255 144.457L277.593 160.55L251.987 148.385L270.365 169.97L248.781 151.592L260.946 177.197L244.853 153.86L249.976 181.741L240.473 155.033L238.205 183.291L235.937 155.033L226.434 181.741L231.557 153.86L215.465 177.197L227.629 151.592L206.045 169.97L224.423 148.385L198.817 160.55L222.156 144.457L194.273 149.581L220.982 140.077L192.724 137.81L220.982 135.542L194.273 126.038L222.156 131.161L198.817 115.069L224.423 127.234L206.045 105.649L227.629 124.027L215.465 98.4214L231.557 121.76L226.434 93.8777L235.937 120.586L238.205 92.3282Z" fill="#446DA9"/>
</g>
<path d="M201.484 137.207C204.954 137.207 207.526 134.794 207.526 131.497C207.526 128.2 204.954 125.787 201.484 125.787C197.998 125.787 195.443 128.216 195.443 131.497C195.443 134.778 197.998 137.207 201.484 137.207ZM201.484 135.031C199.512 135.031 198.03 133.595 198.03 131.497C198.03 129.399 199.512 127.964 201.484 127.964C203.455 127.964 204.939 129.399 204.939 131.497C204.939 133.595 203.455 135.031 201.484 135.031ZM214.21 129.116C212.964 129.116 211.923 129.573 211.197 130.361C211.371 128.736 212.238 127.917 214.179 127.538L217.744 126.828L217.413 124.714L213.374 125.519C210.267 126.15 208.847 128.216 208.847 131.592C208.847 135.362 210.725 137.207 213.611 137.207C216.308 137.207 218.248 135.567 218.248 133.09C218.248 130.708 216.655 129.116 214.21 129.116ZM213.627 135.299C212.381 135.299 211.498 134.399 211.498 133.122C211.498 131.828 212.365 131.024 213.627 131.024C214.888 131.024 215.725 131.828 215.725 133.122C215.725 134.352 214.92 135.299 213.627 135.299ZM224.918 128.405C223.782 128.405 222.868 128.769 222.252 129.509V128.532H219.902V140.078H222.363V136.119C222.994 136.813 223.861 137.144 224.918 137.144C227.3 137.144 229.146 135.441 229.146 132.775C229.146 130.109 227.3 128.405 224.918 128.405ZM224.492 135.125C223.262 135.125 222.331 134.242 222.331 132.775C222.331 131.308 223.262 130.425 224.492 130.425C225.723 130.425 226.654 131.308 226.654 132.775C226.654 134.242 225.723 135.125 224.492 135.125ZM234.028 128.405C232.672 128.405 231.299 128.769 230.369 129.431L231.252 131.15C231.868 130.661 232.798 130.361 233.697 130.361C235.022 130.361 235.653 130.976 235.653 132.034H233.697C231.11 132.034 230.053 133.075 230.053 134.573C230.053 136.04 231.236 137.144 233.224 137.144C234.47 137.144 235.353 136.734 235.811 135.961V137.018H238.114V132.175C238.114 129.604 236.615 128.405 234.028 128.405ZM233.839 135.488C232.972 135.488 232.451 135.077 232.451 134.462C232.451 133.895 232.814 133.469 233.965 133.469H235.653V134.337C235.369 135.11 234.659 135.488 233.839 135.488ZM247.381 128.532H239.195V130.551H242.065V137.018H244.511V130.551H247.381V128.532ZM248.693 137.018H251.138V133.847H254.829V137.018H257.29V128.532H254.829V131.844H251.138V128.532H248.693V137.018ZM262.942 128.405C261.586 128.405 260.213 128.769 259.282 129.431L260.165 131.15C260.78 130.661 261.711 130.361 262.611 130.361C263.935 130.361 264.566 130.976 264.566 132.034H262.611C260.023 132.034 258.967 133.075 258.967 134.573C258.967 136.04 260.15 137.144 262.137 137.144C263.384 137.144 264.267 136.734 264.724 135.961V137.018H267.027V132.175C267.027 129.604 265.529 128.405 262.942 128.405ZM262.752 135.488C261.885 135.488 261.364 135.077 261.364 134.462C261.364 133.895 261.727 133.469 262.879 133.469H264.566V134.337C264.282 135.11 263.573 135.488 262.752 135.488ZM272.65 128.532C270.158 128.532 268.597 129.636 268.597 131.655C268.597 132.901 269.244 133.784 270.411 134.242L268.471 137.018H271.089L272.698 134.589H274.512V137.018H276.705V128.532H272.65ZM272.698 130.535H274.512V132.948H272.666C271.641 132.948 271.105 132.585 271.105 131.733C271.105 130.882 271.673 130.535 272.698 130.535ZM220.128 156.696C221.911 156.696 223.314 155.907 223.93 154.551L222.021 153.51C221.564 154.33 220.885 154.677 220.112 154.677C218.866 154.677 217.888 153.809 217.888 152.326C217.888 150.844 218.866 149.977 220.112 149.977C220.885 149.977 221.564 150.339 222.021 151.143L223.93 150.118C223.314 148.73 221.911 147.957 220.128 147.957C217.368 147.957 215.396 149.771 215.396 152.326C215.396 154.882 217.368 156.696 220.128 156.696ZM231.908 152.137C232.696 151.775 233.154 151.128 233.154 150.276C233.154 148.888 231.892 148.084 229.763 148.084H225.425V156.57H229.952C232.287 156.57 233.407 155.655 233.407 154.156C233.407 153.147 232.902 152.469 231.908 152.137ZM227.681 149.755H229.542C230.394 149.755 230.836 150.039 230.836 150.655C230.836 151.254 230.394 151.569 229.542 151.569H227.681V149.755ZM229.747 154.898H227.681V153.02H229.794C230.693 153.02 231.104 153.321 231.104 153.967C231.104 154.598 230.646 154.898 229.747 154.898ZM238.723 148.084C236.231 148.084 234.67 149.188 234.67 151.207C234.67 152.453 235.316 153.336 236.483 153.793L234.543 156.57H237.162L238.771 154.14H240.585V156.57H242.777V148.084H238.723ZM238.771 150.087H240.585V152.5H238.739C237.714 152.5 237.177 152.137 237.177 151.285C237.177 150.434 237.746 150.087 238.771 150.087ZM250.57 152.153C251.391 151.79 251.927 151.112 251.927 150.308C251.927 148.809 250.207 147.926 247.92 147.926C246.8 147.926 245.633 148.194 244.481 148.699L245.081 150.402C246.027 150.023 246.911 149.819 247.762 149.819C248.851 149.819 249.434 150.134 249.434 150.671C249.434 151.191 248.961 151.475 248.093 151.475H246.58V153.005H248.315C249.198 153.005 249.671 153.288 249.671 153.841C249.671 154.472 248.945 154.834 247.81 154.834C246.769 154.834 245.728 154.614 244.844 154.188L244.182 155.907C245.286 156.459 246.611 156.728 247.92 156.728C250.333 156.728 252.163 155.702 252.163 154.046C252.163 153.131 251.58 152.469 250.57 152.153ZM258.512 150.796H256.367V148.084H253.923V156.57L258.181 156.586C260.547 156.586 261.935 155.497 261.935 153.62C261.935 151.837 260.736 150.812 258.512 150.796ZM257.961 154.834H256.367V152.374L257.961 152.39C258.907 152.405 259.427 152.752 259.427 153.589C259.427 154.425 258.907 154.851 257.961 154.834Z" fill="white"/>
<g filter="url(#filter2_f_364_142)">
<path d="M424.202 64.3972L428.119 113.204L444.534 67.0739L435.685 115.232L463.48 74.9216L442.468 119.148L479.749 87.4054L448.007 124.687L492.234 103.675L451.924 131.471L500.082 122.622L453.952 139.037L502.758 142.953L453.952 146.87L500.082 163.285L451.924 154.436L492.234 182.231L448.007 161.219L479.749 198.5L442.468 166.758L463.48 210.985L435.685 170.675L444.534 218.833L428.119 172.703L424.202 221.509L420.286 172.703L403.871 218.833L412.72 170.675L384.924 210.985L405.936 166.758L368.654 198.5L400.397 161.219L356.171 182.231L396.481 154.436L348.323 163.285L394.453 146.87L345.646 142.953L394.453 139.037L348.323 122.622L396.481 131.471L356.171 103.675L400.397 124.687L368.654 87.4054L405.936 119.148L384.924 74.9216L412.72 115.232L403.871 67.0739L420.286 113.204L424.202 64.3972Z" fill="#446DA9"/>
</g>
<path d="M373.645 131.537V143.115H376.308V133.72H381.535V143.115H384.199V131.537H373.645ZM391.039 143.248C393.867 143.248 395.918 141.345 395.918 138.666C395.918 135.986 393.867 134.084 391.039 134.084C388.21 134.084 386.143 135.986 386.143 138.666C386.143 141.345 388.21 143.248 391.039 143.248ZM391.039 141.131C389.748 141.131 388.755 140.204 388.755 138.666C388.755 137.128 389.748 136.201 391.039 136.201C392.329 136.201 393.305 137.128 393.305 138.666C393.305 140.204 392.329 141.131 391.039 141.131ZM406.265 140.998V134.217H398.507L398.391 137.293C398.292 139.228 398.077 140.965 396.853 140.998H396.489V145.034H398.887V143.115H405.14V145.034H407.538V140.998H406.265ZM400.723 137.475L400.773 136.334H403.684V140.998H399.929C400.558 140.336 400.674 138.98 400.723 137.475ZM417.863 140.998V134.217H410.105L409.989 137.293C409.89 139.228 409.675 140.965 408.451 140.998H408.087V145.034H410.486V143.115H416.738V145.034H419.137V140.998H417.863ZM412.322 137.475L412.371 136.334H415.282V140.998H411.528C412.156 140.336 412.272 138.98 412.322 137.475ZM429.412 138.699C429.412 135.837 427.394 134.084 424.78 134.084C422.067 134.084 420.033 136.003 420.033 138.666C420.033 141.312 422.035 143.248 425.111 143.248C426.716 143.248 427.956 142.752 428.783 141.809L427.41 140.32C426.798 140.899 426.12 141.181 425.177 141.181C423.821 141.181 422.878 140.502 422.63 139.394H429.362C429.378 139.179 429.412 138.897 429.412 138.699ZM424.797 136.036C425.955 136.036 426.798 136.764 426.98 137.888H422.597C422.779 136.747 423.622 136.036 424.797 136.036ZM436.633 134.084C435.442 134.084 434.483 134.464 433.838 135.242V134.217H431.373V146.325H433.953V142.173C434.615 142.9 435.525 143.248 436.633 143.248C439.131 143.248 441.067 141.461 441.067 138.666C441.067 135.87 439.131 134.084 436.633 134.084ZM436.187 141.131C434.897 141.131 433.921 140.204 433.921 138.666C433.921 137.128 434.897 136.201 436.187 136.201C437.477 136.201 438.453 137.128 438.453 138.666C438.453 140.204 437.477 141.131 436.187 141.131ZM453.303 143.115H456.363L453.551 138.517L456.148 134.217H453.419L451.433 137.674H450.177V134.217H447.629V137.674H446.356L444.387 134.217H441.658L444.254 138.517L441.459 143.115H444.503L446.388 139.741H447.629V143.115H450.177V139.741H451.417L453.303 143.115ZM464.007 143.115H467.05L463.725 138.484L466.835 134.217H464.089L461.674 137.674H460.285V134.217H457.704V143.115H460.285V139.741H461.625L464.007 143.115ZM471.613 134.084C470.19 134.084 468.751 134.464 467.775 135.159L468.702 136.962C469.347 136.45 470.322 136.135 471.265 136.135C472.655 136.135 473.317 136.78 473.317 137.888H471.265C468.552 137.888 467.444 138.98 467.444 140.551C467.444 142.09 468.685 143.248 470.769 143.248C472.076 143.248 473.002 142.818 473.482 142.007V143.115H475.897V138.038C475.897 135.341 474.326 134.084 471.613 134.084ZM471.415 141.511C470.505 141.511 469.959 141.081 469.959 140.436C469.959 139.841 470.339 139.394 471.547 139.394H473.317V140.303C473.019 141.114 472.274 141.511 471.415 141.511Z" fill="white"/>
</g>
<defs>
<filter id="filter0_f_364_142" x="35.9296" y="89.1542" width="107.598" height="107.598" filterUnits="userSpaceOnUse" color-interpolation-filters="sRGB">
<feFlood flood-opacity="0" result="BackgroundImageFix"/>
<feBlend mode="normal" in="SourceGraphic" in2="BackgroundImageFix" result="shape"/>
<feGaussianBlur stdDeviation="13.8068" result="effect1_foregroundBlur_364_142"/>
</filter>
<filter id="filter1_f_364_142" x="138.325" y="37.9292" width="199.76" height="199.76" filterUnits="userSpaceOnUse" color-interpolation-filters="sRGB">
<feFlood flood-opacity="0" result="BackgroundImageFix"/>
<feBlend mode="normal" in="SourceGraphic" in2="BackgroundImageFix" result="shape"/>
<feGaussianBlur stdDeviation="27.1995" result="effect1_foregroundBlur_364_142"/>
</filter>
<filter id="filter2_f_364_142" x="282.053" y="0.804253" width="284.298" height="284.298" filterUnits="userSpaceOnUse" color-interpolation-filters="sRGB">
<feFlood flood-opacity="0" result="BackgroundImageFix"/>
<feBlend mode="normal" in="SourceGraphic" in2="BackgroundImageFix" result="shape"/>
<feGaussianBlur stdDeviation="31.7965" result="effect1_foregroundBlur_364_142"/>
</filter>
<clipPath id="clip0_364_142">
<rect width="567" height="285.595" fill="white" transform="translate(0 0.155762)"/>
</clipPath>
</defs>
</svg>
