<svg width="167" height="43" viewBox="0 0 167 43" fill="none" xmlns="http://www.w3.org/2000/svg">
<path d="M38.6285 0.603516H13.3643C12.4714 0.606142 11.6159 0.961991 10.9846 1.59334C10.3532 2.22468 9.99738 3.08021 9.99475 3.97307V29.2372C9.99869 30.1292 10.3551 30.9835 10.9863 31.6138C11.6175 32.244 12.4723 32.5992 13.3643 32.6018H38.6285C39.52 32.5992 40.3743 32.2439 41.0047 31.6135C41.6351 30.983 41.9904 30.1288 41.993 29.2372V3.97307C41.9904 3.08107 41.6353 2.22629 41.005 1.59508C40.3747 0.963881 39.5205 0.607453 38.6285 0.603516ZM37.4738 26.5993C37.4738 26.9953 37.3165 27.3751 37.0364 27.6552C36.7564 27.9352 36.3766 28.0925 35.9806 28.0925H16.0022C15.6062 28.0925 15.2264 27.9352 14.9464 27.6552C14.6664 27.3751 14.5091 26.9953 14.5091 26.5993V6.61097C14.5091 6.21496 14.6664 5.83517 14.9464 5.55515C15.2264 5.27513 15.6062 5.11782 16.0022 5.11782H35.9906C36.3866 5.11782 36.7664 5.27513 37.0464 5.55515C37.3264 5.83517 37.4837 6.21496 37.4837 6.61097L37.4738 26.5993Z" fill="white"/>
<path d="M6.64003 34.3584H2.27006C1.18428 34.3584 0.304077 35.2386 0.304077 36.3244V40.6943C0.304077 41.7801 1.18428 42.6603 2.27006 42.6603H6.64003C7.72582 42.6603 8.60602 41.7801 8.60602 40.6943V36.3244C8.60602 35.2386 7.72582 34.3584 6.64003 34.3584Z" fill="white"/>
<path d="M53.0376 22.2788V12.1602H55.1778V16.1419H56.6709L59.5328 12.1602H62.1807L58.4926 17.1075L62.5241 22.2788H59.8364L56.656 18.0034H55.1629V22.2788H53.0376Z" fill="white"/>
<path d="M63.7336 22.2788V12.1602H71.513V13.9967H65.8738V16.2365H70.428V18.073H65.8738V20.4322H71.5876V22.2788H63.7336Z" fill="white"/>
<path d="M73.0458 22.2788V12.1602H80.8102V13.9967H75.171V16.2365H79.7252V18.073H75.171V20.4322H80.8799V22.2788H73.0458Z" fill="white"/>
<path d="M84.4927 22.2776H82.3525V12.159H87.051C87.9627 12.1232 88.8534 12.4385 89.5396 13.04C89.8464 13.3361 90.0903 13.691 90.257 14.0835C90.4236 14.476 90.5095 14.8981 90.5095 15.3245C90.5095 15.7509 90.4236 16.1729 90.257 16.5654C90.0903 16.9579 89.8464 17.3128 89.5396 17.609C88.8534 18.2104 87.9627 18.5257 87.051 18.49H84.4927V22.2776ZM84.4927 16.6434H86.8469C87.2318 16.6592 87.6085 16.5295 87.9021 16.2801C88.0357 16.1605 88.1411 16.0127 88.2108 15.8475C88.2805 15.6823 88.3128 15.5036 88.3053 15.3245C88.3118 15.1447 88.2791 14.9656 88.2095 14.7998C88.1399 14.6339 88.035 14.4851 87.9021 14.3639C87.6113 14.1091 87.2331 13.9771 86.8469 13.9956H84.4927V16.6434Z" fill="white"/>
<path d="M95.5522 12.1602H97.6924V22.2788H95.5522V12.1602Z" fill="white"/>
<path d="M99.0114 12.1602H108.319V13.9967H104.735V22.2788H102.595V13.9967H99.0114V12.1602Z" fill="white"/>
<path d="M112.863 14.9367C112.839 14.5162 112.917 14.0961 113.09 13.7121C113.264 13.3282 113.527 12.9919 113.859 12.7318C114.697 12.1702 115.698 11.9024 116.706 11.9703C117.898 11.8941 119.077 12.261 120.015 13.0006V14.8621C119.388 14.2349 118.393 13.9214 117.029 13.9214C116.506 13.899 115.985 13.9837 115.496 14.1702C115.345 14.2151 115.211 14.3056 115.113 14.4295C115.015 14.5533 114.957 14.7044 114.949 14.8621C114.949 15.3963 115.647 15.7961 117.044 16.0616C118.089 16.1864 119.082 16.5866 119.921 17.2212C120.223 17.4902 120.461 17.8233 120.618 18.1962C120.775 18.5691 120.846 18.9723 120.827 19.3764C120.85 19.8159 120.763 20.2543 120.573 20.6516C120.384 21.0489 120.098 21.3924 119.742 21.6509C118.805 22.2353 117.708 22.5105 116.606 22.4373C115.314 22.5081 114.036 22.1416 112.978 21.3971V19.5356C113.729 20.1628 114.834 20.4763 116.302 20.4763C116.922 20.5 117.54 20.4054 118.124 20.1976C118.567 20.0085 118.786 19.7447 118.786 19.4062C118.786 18.8488 118.059 18.439 116.606 18.1769C115.579 18.0398 114.603 17.6461 113.769 17.0321C113.47 16.7734 113.234 16.4507 113.077 16.0879C112.92 15.7251 112.847 15.3316 112.863 14.9367Z" fill="white"/>
<path d="M122.32 12.1602H124.46V22.2788H122.32V12.1602Z" fill="white"/>
<path d="M128.516 22.2781H126.376V12.1595H127.62L132.334 18.8388L137.047 12.1445H138.276V22.2781H136.136V16.8032L132.826 21.5564H131.831L128.506 16.7882L128.516 22.2781Z" fill="white"/>
<path d="M142.323 22.2776H140.183V12.159H144.882C145.793 12.1232 146.684 12.4385 147.37 13.04C147.677 13.3361 147.921 13.691 148.088 14.0835C148.254 14.476 148.34 14.8981 148.34 15.3245C148.34 15.7509 148.254 16.1729 148.088 16.5654C147.921 16.9579 147.677 17.3128 147.37 17.609C146.684 18.2104 145.793 18.5257 144.882 18.49H142.323V22.2776ZM142.323 16.6434H144.677C145.062 16.6597 145.439 16.5299 145.733 16.2801C145.868 16.1614 145.974 16.0139 146.045 15.8486C146.116 15.6832 146.148 15.5041 146.141 15.3245C146.147 15.1442 146.114 14.9647 146.044 14.7987C145.973 14.6327 145.867 14.4843 145.733 14.3639C145.442 14.1091 145.064 13.9771 144.677 13.9956H142.323V16.6434Z" fill="white"/>
<path d="M149.839 22.2788V12.1602H151.979V20.4322H157.558V22.2788H149.839Z" fill="white"/>
<path d="M158.847 22.2788V12.1602H166.617V13.9967H160.987V16.2365H165.542V18.073H160.987V20.4322H166.696V22.2788H158.847Z" fill="white"/>
</svg>
