<svg width="42" height="42" viewBox="0 0 42 42" fill="none" xmlns="http://www.w3.org/2000/svg">
<path d="M27.3894 16.84C29.2594 16.84 31.0531 16.097 32.3754 14.7747C33.698 13.4525 34.441 11.659 34.441 9.78902C34.441 7.919 33.6981 6.12524 32.3757 4.80297C31.0535 3.48071 29.2601 2.7377 27.39 2.73737C25.52 2.73737 23.7263 3.48032 22.404 4.80264C21.0814 6.12491 20.3384 7.91832 20.3384 9.78834C20.3407 11.6581 21.084 13.4501 22.4059 14.7721C23.7279 16.0941 25.5199 16.8377 27.3894 16.84ZM21.3061 10.2604H27.1941L31.3566 14.4229C30.211 15.4078 28.7406 15.9322 27.2307 15.8943C25.7204 15.8565 24.2783 15.259 23.1838 14.2181C22.089 13.1772 21.4201 11.7667 21.3062 10.2604H21.3061ZM33.4965 9.78838C33.4965 11.2446 32.9738 12.6525 32.0235 13.7556L27.861 9.59313V3.70515C29.393 3.82497 30.8239 4.51755 31.8684 5.64469C32.9126 6.77213 33.4939 8.25181 33.4965 9.78838ZM26.9173 3.70515V9.31664H21.3058C21.42 7.86628 22.0478 6.50449 23.0765 5.47581C24.1051 4.44714 25.4669 3.81942 26.9173 3.70515Z" fill="#D67F33"/>
<path d="M8.68413 11.9659H11.3742C11.6346 11.9659 11.8459 11.7549 11.8459 11.4941C11.8459 11.2334 11.6346 11.0221 11.3742 11.0221H8.68413C8.08141 11.0228 7.59293 11.5113 7.59192 12.114V14.8044C7.59291 15.4071 8.08141 15.8956 8.68413 15.8962H11.3742C11.9769 15.8956 12.465 15.4071 12.4661 14.8044V12.9942L12.5905 12.8958V12.8955C12.7942 12.7335 12.8285 12.437 12.6669 12.2329C12.5052 12.0288 12.2086 11.9942 12.0042 12.1555L10.0456 13.7072L9.54331 13.2049C9.35897 13.0206 9.06041 13.0206 8.87607 13.2049C8.69173 13.3889 8.69173 13.6878 8.87607 13.8722L9.67564 14.6717C9.84484 14.8409 10.1144 14.8567 10.3024 14.7079L11.5224 13.7415V14.8043C11.522 14.886 11.4559 14.9521 11.3742 14.9521H8.68419C8.60222 14.9521 8.53606 14.886 8.53606 14.8043V12.114C8.53606 12.0323 8.60222 11.9658 8.68419 11.9658L8.68413 11.9659Z" fill="#D67F33"/>
<path d="M13.6519 11.9659H19.159C19.4197 11.9659 19.6311 11.7549 19.6311 11.4941C19.6311 11.2334 19.4197 11.0221 19.159 11.0221H13.6519C13.3911 11.0221 13.1798 11.2334 13.1798 11.4941C13.1798 11.7549 13.3911 11.9659 13.6519 11.9659Z" fill="#D67F33"/>
<path d="M13.6519 13.931H19.8812C20.1419 13.931 20.3529 13.7197 20.3529 13.459C20.3529 13.1986 20.1419 12.9872 19.8812 12.9872H13.6519C13.3911 12.9872 13.1798 13.1986 13.1798 13.459C13.1798 13.7197 13.3911 13.931 13.6519 13.931Z" fill="#D67F33"/>
<path d="M13.6519 15.8962H20.9925C21.2532 15.8962 21.4642 15.6849 21.4642 15.4242C21.4642 15.1635 21.2532 14.9521 20.9925 14.9521H13.6519C13.3911 14.9521 13.1798 15.1635 13.1798 15.4242C13.1798 15.6849 13.3911 15.8962 13.6519 15.8962Z" fill="#D67F33"/>
<path d="M8.0639 26.9776C8.18635 26.9776 8.3042 26.9298 8.39242 26.8446L11.7649 23.5795L14.4767 25.9542L14.4763 25.9545C14.5715 26.0362 14.6942 26.0776 14.8193 26.0704C14.9444 26.0618 15.0609 26.0039 15.1432 25.9091L20.5556 19.6854L20.5921 20.9418C20.5994 21.197 20.8084 21.3997 21.0635 21.3997H21.0774C21.3381 21.3922 21.5431 21.1746 21.5356 20.9142L21.4641 18.4507C21.4641 18.4474 21.4622 18.4447 21.4618 18.4415C21.449 18.3812 21.4342 18.3213 21.4177 18.2617C21.3973 18.2255 21.3726 18.1919 21.3437 18.162C21.3325 18.1445 21.32 18.1277 21.3061 18.1116L21.3038 18.1103L21.3022 18.108C21.2413 18.0708 21.1774 18.0385 21.1113 18.0125C21.0606 17.9977 21.0079 17.9918 20.9552 17.9948L20.9513 17.9944L18.517 18.2067C18.2576 18.2295 18.0657 18.4582 18.0884 18.7176C18.1111 18.977 18.3396 19.1693 18.5993 19.1469L19.8702 19.0359L14.742 24.9329L12.0596 22.5835H12.0592C11.8746 22.4216 11.5967 22.4285 11.42 22.599L7.73548 26.1666C7.59756 26.3003 7.55444 26.5043 7.62652 26.6828C7.69894 26.8608 7.87176 26.9774 8.064 26.9777L8.0639 26.9776Z" fill="#D67F33"/>
<path d="M14.3866 35.5907C14.2635 35.5674 14.1361 35.5944 14.0328 35.6655C13.9294 35.7366 13.859 35.8458 13.8366 35.969C13.7559 36.4532 13.8807 36.9489 14.1816 37.337C14.4627 37.6586 14.8538 37.8643 15.2781 37.9137V38.63C15.2781 38.8907 15.4894 39.102 15.7501 39.102C16.0105 39.102 16.2218 38.8907 16.2218 38.63V37.9137C16.6465 37.8643 17.0372 37.6586 17.3184 37.337C17.6169 36.9525 17.7427 36.461 17.665 35.9804C17.4313 34.5152 15.8845 34.271 15.7952 34.2588C14.8373 34.1663 14.7751 33.5823 14.7724 33.474C14.7724 33.4441 14.7698 33.4145 14.7652 33.3852C14.7435 33.2094 14.7892 33.032 14.8936 32.8891C15.1266 32.6544 15.4423 32.5204 15.7732 32.5168C16.0707 32.4862 16.3673 32.5836 16.5889 32.7844C16.713 32.9589 16.765 33.1745 16.7344 33.3865C16.6893 33.6416 16.8585 33.8852 17.1133 33.9319C17.1416 33.9375 17.1705 33.9402 17.1995 33.9398C17.427 33.9395 17.6218 33.7772 17.6633 33.5537C17.744 33.0695 17.6189 32.5734 17.3183 32.1853C17.0372 31.8637 16.6461 31.6583 16.2218 31.6086V30.8923C16.2218 30.6316 16.0105 30.4203 15.7501 30.4203C15.4894 30.4203 15.2781 30.6316 15.2781 30.8923V31.6478C14.8254 31.7307 14.4183 31.9743 14.1309 32.3335C13.8843 32.6715 13.7764 33.0909 13.8291 33.5056C13.8429 34.0541 14.2441 35.0567 15.6813 35.195C15.6905 35.1963 16.6072 35.3402 16.7343 36.1354V36.1358C16.7649 36.3478 16.7129 36.563 16.5888 36.7378C16.361 36.9439 16.0552 37.042 15.7501 37.0068C15.4446 37.042 15.1388 36.9439 14.9107 36.7378C14.7866 36.5634 14.7346 36.3481 14.7652 36.1364C14.8103 35.8813 14.6411 35.6377 14.3866 35.5906L14.3866 35.5907Z" fill="#D67F33"/>
<path d="M15.7501 40.545C17.2837 40.545 18.7548 39.9357 19.8391 38.851C20.9237 37.7664 21.5331 36.2953 21.5331 34.7616C21.5331 33.2277 20.9238 31.7569 19.8391 30.6723C18.7548 29.5877 17.2837 28.9783 15.7501 28.9783C14.2162 28.9783 12.7451 29.5876 11.6608 30.6723C10.5761 31.7569 9.9668 33.228 9.9668 34.7616C9.96844 36.2949 10.5784 37.7651 11.6624 38.849C12.7467 39.9333 14.2167 40.5433 15.7501 40.545ZM15.7501 29.9228C17.0335 29.9228 18.2644 30.4324 19.1719 31.3399C20.0794 32.2477 20.5893 33.4786 20.5893 34.762C20.5893 36.0454 20.0794 37.2762 19.1719 38.1837C18.2643 39.0913 17.0335 39.6012 15.7501 39.6012C14.4667 39.6012 13.2355 39.0913 12.328 38.1837C11.4204 37.2762 10.9106 36.0454 10.9106 34.762C10.9123 33.4788 11.4225 32.2487 12.3297 31.3415C13.2369 30.4343 14.467 29.9241 15.7502 29.9227L15.7501 29.9228Z" fill="#D67F33"/>
<path d="M39.0944 31.6343C38.6622 30.3229 37.8326 29.1783 36.721 28.3593C36.7092 28.3488 36.7026 28.3343 36.6894 28.3248C36.6779 28.3165 36.6644 28.3149 36.6526 28.308C35.5291 27.4949 34.1778 27.0567 32.791 27.0562C31.4042 27.0555 30.0526 27.492 28.9284 28.3041C28.914 28.3097 28.8995 28.3163 28.8857 28.3235C28.8728 28.336 28.8606 28.3492 28.8491 28.3634C27.7444 29.1791 26.9192 30.3164 26.4863 31.6193C26.483 31.6275 26.4764 31.6331 26.4738 31.6416C26.4718 31.6476 26.4734 31.6535 26.4718 31.6591C26.0422 32.9814 26.0422 34.4051 26.4711 35.7274C26.4728 35.7333 26.4711 35.7392 26.4731 35.7448C26.4767 35.7557 26.4843 35.7639 26.4886 35.7744L26.4883 35.7748C26.9215 37.0747 27.7454 38.2094 28.8471 39.0238C28.8586 39.0379 28.8708 39.0511 28.884 39.0636C28.9005 39.0735 28.9179 39.0824 28.9357 39.0899C30.0569 39.8967 31.4032 40.3316 32.7848 40.3322H32.7877C34.1713 40.3322 35.5199 39.8971 36.6424 39.0879C36.6578 39.0813 36.673 39.0734 36.6878 39.0649C36.699 39.054 36.7098 39.0422 36.7201 39.03C37.8297 38.2126 38.6582 37.0707 39.0915 35.7623C39.0934 35.7567 39.0977 35.7524 39.0994 35.7468C39.1004 35.7438 39.0994 35.7405 39.1004 35.7376H39.1007C39.5342 34.4103 39.5342 32.9797 39.101 31.6522C39.1004 31.6496 39.101 31.6469 39.1 31.6443C39.099 31.6407 39.0958 31.638 39.0944 31.6344L39.0944 31.6343ZM36.4995 38.0032L36.2095 37.6039C36.0561 37.3932 35.7611 37.3468 35.5505 37.4999C35.3395 37.6529 35.2927 37.9479 35.4458 38.1589L35.7351 38.5569C34.9833 39.0157 34.135 39.2922 33.2575 39.3647V38.8689C33.2575 38.6082 33.0461 38.3972 32.7854 38.3972C32.5247 38.3972 32.3137 38.6082 32.3137 38.8689V39.3643C31.4361 39.2913 30.5881 39.0141 29.8369 38.5549L30.126 38.1572V38.1576C30.278 37.9466 30.231 37.6523 30.0206 37.4992C29.8103 37.3465 29.5157 37.3926 29.3623 37.6026L29.0733 38.0006C28.4057 37.4265 27.88 36.7059 27.5367 35.8952L28.0107 35.7411C28.2586 35.6608 28.3942 35.3945 28.3135 35.1466C28.2332 34.8987 27.9669 34.7628 27.7191 34.8434L27.2496 34.9962H27.2493C27.0413 34.14 27.0413 33.2462 27.25 32.3904L27.7197 32.5431V32.5428C27.8385 32.582 27.9682 32.5718 28.0802 32.5148C28.1917 32.4582 28.2763 32.3595 28.3149 32.2403C28.3537 32.1211 28.3435 31.9914 28.2866 31.8799C28.2296 31.7683 28.1305 31.6837 28.0114 31.6452L27.5373 31.4911C27.881 30.6803 28.407 29.9601 29.0749 29.3863L29.3643 29.7843C29.5173 29.9953 29.8126 30.042 30.0233 29.8886C30.1247 29.8152 30.1925 29.7043 30.2122 29.5805C30.2317 29.4571 30.2014 29.3307 30.1276 29.2293L29.8389 28.832C30.5905 28.3731 31.4384 28.0966 32.316 28.0239V28.5193C32.316 28.78 32.527 28.9913 32.7878 28.9913C33.0485 28.9913 33.2598 28.78 33.2598 28.5193V28.0239C34.137 28.0966 34.9856 28.3734 35.7369 28.8323L35.4472 29.2306L35.4475 29.231C35.2951 29.4416 35.3419 29.7362 35.5526 29.889C35.7629 30.042 36.0575 29.9956 36.2109 29.7856L36.5009 29.3867C37.1688 29.9607 37.6952 30.6816 38.0385 31.4927L37.5628 31.6471C37.443 31.6849 37.3433 31.7692 37.286 31.8811C37.2284 31.9927 37.2178 32.1231 37.2567 32.2426C37.2955 32.3621 37.3805 32.4611 37.4924 32.5181C37.6046 32.5747 37.735 32.5843 37.8542 32.5448L38.3259 32.3917C38.5342 33.2482 38.5342 34.1422 38.3252 34.9985L37.8535 34.8451L37.8538 34.8454C37.7347 34.8062 37.605 34.8164 37.4931 34.8731C37.3811 34.93 37.2969 35.0288 37.258 35.1479C37.2192 35.2671 37.2294 35.3971 37.2867 35.5087C37.3436 35.6203 37.4427 35.7046 37.5618 35.7431L38.0375 35.8978H38.0378C37.6942 36.7085 37.1675 37.4291 36.4996 38.0032L36.4995 38.0032Z" fill="#D67F33"/>
<path d="M39.1964 28.4119C38.8564 28.0014 38.4788 27.6238 38.0683 27.2837C36.981 26.3891 35.6837 25.786 34.2989 25.5319C34.3378 25.465 34.3588 25.3893 34.3605 25.3116V24.9479H35.6811V24.9482C35.8066 24.9482 35.9264 24.8985 36.0149 24.81C36.1035 24.7214 36.1532 24.6016 36.1532 24.4762V22.7777C36.1532 22.6526 36.1035 22.5324 36.0149 22.4439C35.9264 22.3553 35.8066 22.3056 35.6811 22.3056H29.8923C29.7672 22.3056 29.647 22.3553 29.5588 22.4439C29.4703 22.5324 29.4206 22.6526 29.4206 22.7777V24.4762C29.4206 24.6013 29.4703 24.7214 29.5588 24.81C29.647 24.8985 29.7672 24.9482 29.8923 24.9482H31.2139V25.5431H31.2143C29.8521 25.8038 28.5772 26.4022 27.5068 27.2837C27.0946 27.6234 26.7161 28.0013 26.3754 28.4128C24.7825 30.346 24.1478 32.8958 24.6489 35.3502C25.1499 37.8048 26.7328 39.9017 28.9561 41.0561H19.325C21.2665 39.955 22.5911 38.0198 22.9153 35.8114C23.2395 33.6032 22.5268 31.3688 20.9836 29.7562C19.4408 28.1435 17.2399 27.3328 15.0197 27.5593C12.799 27.7858 10.8075 29.0238 9.62145 30.9149H6.59239V10.0043C6.59404 9.871 6.6128 9.73867 6.64802 9.60995H14.7869C14.912 9.60995 15.0322 9.56025 15.1204 9.4717C15.2089 9.38315 15.2586 9.26333 15.2586 9.13792V0.998688C15.3873 0.963796 15.52 0.945362 15.6533 0.943716H35.0529C35.6441 0.944374 36.1231 1.42333 36.1241 2.01486V21.3277C36.1241 21.5884 36.3354 21.7994 36.5961 21.7994C36.8565 21.7994 37.0678 21.5884 37.0678 21.3277V2.01486C37.0672 1.48061 36.8549 0.968407 36.477 0.590543C36.0994 0.212975 35.5872 0.000329687 35.053 1.03723e-06H15.6534C15.2916 -0.000328119 14.9344 0.0776873 14.6062 0.229112L14.601 0.231088L14.5927 0.234379H14.5924C14.3129 0.359469 14.0588 0.534589 13.8425 0.751515L6.40055 8.19384C6.18593 8.40714 6.01212 8.65798 5.88803 8.93382C5.88506 8.94041 5.88276 8.94765 5.8798 8.95423H5.87947C5.72772 9.28374 5.64904 9.64189 5.64871 10.0043V30.9149H4.75698C4.18519 30.9169 3.72299 31.3813 3.72333 31.9531V34.2043C3.72333 34.2366 3.72991 34.2669 3.73288 34.2985L1.0382 34.2982C0.466414 34.2978 0.00193819 34.76 0 35.3321V37.5831V37.5827C0.000329156 37.7842 0.0592515 37.981 0.170182 38.1493C0.0592498 38.3175 0.00032865 38.5143 0 38.7154V40.9664C0.0019751 41.5381 0.46611 42.0006 1.0382 42H32.7866C34.897 41.9993 36.9281 41.1955 38.4672 39.7517C40.0062 38.3079 40.938 36.3326 41.0737 34.2265C41.209 32.1204 40.5378 30.042 39.1964 28.4129L39.1964 28.4119ZM14.3151 1.61422V8.66655H7.26272L14.3151 1.61422ZM15.7499 28.4658C17.4211 28.4632 19.0249 29.1255 20.2073 30.3062C21.39 31.487 22.0547 33.0897 22.0547 34.761C22.0547 36.4322 21.3901 38.035 20.2073 39.2157C19.0249 40.3965 17.4212 41.0587 15.7499 41.0561C15.4721 41.0561 15.1949 41.0377 14.9197 41.0005C12.9858 40.7385 11.2816 39.5985 10.301 37.9112C10.2319 37.7923 10.1667 37.6719 10.1058 37.5491C9.67622 36.6824 9.45337 35.7281 9.45469 34.7609C9.45469 34.623 9.45929 34.4851 9.46818 34.3478C9.47806 34.1984 9.49419 34.0496 9.5146 33.9015C9.72132 32.3948 10.4669 31.0142 11.6134 30.0149C12.7596 29.0155 14.229 28.4651 15.7498 28.4658L15.7499 28.4658ZM4.66765 34.2044V31.9531C4.66633 31.9024 4.70649 31.8599 4.75719 31.8586H9.11517C9.10365 31.8846 9.09608 31.9123 9.08522 31.9383C9.0151 32.1039 8.94959 32.2717 8.89199 32.4423L8.88639 32.4607C8.88376 32.4683 8.88211 32.4758 8.87948 32.4834C8.85644 32.5532 8.83669 32.624 8.81562 32.6944C8.78698 32.7915 8.759 32.8883 8.73398 32.9867C8.72082 33.0387 8.7093 33.0911 8.69744 33.1431C8.68296 33.2069 8.66617 33.2701 8.65334 33.3343C8.63819 33.4107 8.62733 33.4877 8.61449 33.5648C8.60527 33.6194 8.5954 33.6734 8.58783 33.728C8.57894 33.7889 8.57104 33.8498 8.5638 33.9107C8.55458 33.9894 8.54734 34.0681 8.54076 34.1474C8.53648 34.1971 8.52956 34.2462 8.5266 34.2962L8.52627 34.2982H4.75716C4.70647 34.2968 4.66664 34.255 4.66762 34.2043L4.66765 34.2044ZM0.94396 35.3321C0.944618 35.3074 0.954823 35.2844 0.972598 35.2676C0.990374 35.2508 1.01407 35.2416 1.03843 35.2423H8.52424C8.53774 35.446 8.56242 35.6481 8.59304 35.8493C8.596 35.868 8.59929 35.8865 8.60226 35.9052C8.63155 36.0886 8.66776 36.2706 8.71122 36.451C8.71583 36.4708 8.72011 36.4905 8.72504 36.5103V36.5096C8.82248 36.901 8.9525 37.2835 9.11413 37.6528C9.11775 37.6607 9.12006 37.6693 9.12368 37.6772H1.03846C0.986451 37.6765 0.944644 37.6347 0.943987 37.5827L0.94396 35.3321ZM12.1846 41.0562H1.03834C1.01398 41.0569 0.990282 41.0476 0.972506 41.0309C0.95473 41.0141 0.944526 40.9907 0.943868 40.9663V38.7154C0.944526 38.6637 0.986332 38.6219 1.03834 38.621H9.62791C9.63383 38.6305 9.64173 38.6387 9.64766 38.6483C9.79677 38.882 9.95906 39.1068 10.1342 39.3214C10.1503 39.3415 10.1668 39.3609 10.1832 39.3807C10.3583 39.5917 10.5457 39.7925 10.7435 39.9821C10.7606 39.9986 10.7784 40.0144 10.7958 40.0308C10.9966 40.2194 11.2076 40.3969 11.4285 40.5614C11.4433 40.5723 11.4585 40.5825 11.4733 40.5934C11.6997 40.7599 11.9358 40.9133 12.18 41.0529L12.1846 41.0562ZM30.364 23.2493H35.2092V24.0041H33.8908L33.8885 24.0037H31.6856L31.6833 24.0041H30.364L30.364 23.2493ZM33.4165 24.9478V25.3115C33.4195 25.3474 33.4264 25.383 33.4376 25.4169C33.0116 25.384 32.5837 25.3833 32.1577 25.4146V24.9481L33.4165 24.9478ZM32.7871 41.0559C30.9165 41.0559 29.1162 40.3435 27.7514 39.0643C26.387 37.7848 25.5604 36.0339 25.4399 34.1672C25.3194 32.3005 25.9142 30.4577 27.1032 29.0136C27.405 28.6486 27.7408 28.3131 28.1062 28.0119C29.4246 26.9266 31.0789 26.3328 32.7867 26.3328C34.4942 26.3328 36.1489 26.9263 37.467 28.0116C37.8314 28.3131 38.1668 28.6482 38.4683 29.0126C39.6573 30.4564 40.2521 32.2988 40.1323 34.1655C40.0122 36.0319 39.186 37.7832 37.8218 39.0626C36.4577 40.3425 34.6578 41.0552 32.7871 41.0558L32.7871 41.0559Z" fill="#D67F33"/>
<path d="M34.5346 30.4857L33.0796 32.4871C33.0608 32.4825 33.0434 32.475 33.0243 32.471H33.024C32.9453 32.4565 32.865 32.449 32.7846 32.4483C32.4545 32.449 32.1381 32.5806 31.9048 32.8147C31.6717 33.0484 31.5411 33.3654 31.5414 33.6955C31.5417 34.0257 31.6734 34.3424 31.9071 34.5757C32.1408 34.8091 32.4575 34.9398 32.788 34.9398C33.1181 34.9395 33.4348 34.8081 33.6682 34.5747C33.9015 34.341 34.0326 34.0244 34.0326 33.6942C34.0326 33.6587 34.0302 33.6251 34.026 33.5741L34.0263 33.5737C34.0079 33.3841 33.946 33.2011 33.8453 33.0392L35.2982 31.0404C35.4506 30.8297 35.4036 30.5351 35.1932 30.3823C34.9825 30.2293 34.6879 30.2757 34.5345 30.4857L34.5346 30.4857ZM32.7846 33.9961C32.6181 33.9961 32.4828 33.8608 32.4828 33.6942C32.4828 33.5273 32.6181 33.3924 32.7846 33.3924C32.8051 33.3924 32.8255 33.3943 32.8459 33.3973C32.9766 33.4249 33.0743 33.5342 33.0872 33.6672L33.0891 33.6945H33.0888C33.0878 33.8618 32.9519 33.9964 32.7846 33.9961H32.7846Z" fill="#D67F33"/>
</svg>
