<svg width="33" height="42" viewBox="0 0 33 42" fill="none" xmlns="http://www.w3.org/2000/svg">
<path d="M14.4771 0.288021C9.42076 1.21065 3.55531 4.61619 3.6657 11.1778C3.66998 11.4187 3.67656 11.6616 3.68348 11.9049C3.73219 13.633 3.77828 15.2657 2.86056 16.4335C2.31185 17.1179 1.71935 17.7657 1.08634 18.3727C0.477705 18.975 0.110362 19.3384 0.0169107 19.7437H0.0165816C-0.0308183 19.9837 0.0244818 20.2322 0.168657 20.4297C0.562999 21.036 1.78126 21.7417 2.87765 22.0215H2.87732C3.15711 22.825 3.06692 23.7108 2.63143 24.4419C2.56099 24.5486 2.53729 24.6796 2.56527 24.8043C2.74071 25.4212 3.14856 25.9459 3.7032 26.2681C3.36976 26.486 3.12585 26.8165 3.01525 27.199C2.99583 27.2961 3.00735 27.3969 3.04849 27.487C3.29141 28.0051 3.59688 28.4913 3.95798 28.9354C3.82401 29.7336 3.53928 32.2409 5.02083 33.1978C5.83058 33.7208 6.92146 33.6451 7.97807 33.571C9.38035 33.4739 10.2592 33.4641 10.6278 34.1688C10.933 34.7518 11.0429 35.9522 9.83718 38.3604C9.4988 39.0358 8.59947 40.8307 10.0182 41.9042C10.1002 41.9664 10.2002 42 10.3029 42H25.5981C25.6732 42 25.7469 41.9822 25.8137 41.948C26.3506 41.6728 27.2779 40.8605 26.9441 39.7571C25.8048 35.9953 25.0227 30.7355 27.7657 27.0387C32.3467 20.8645 33.6755 15.051 31.7147 9.75992C29.0941 2.69107 22.1673 -1.11465 14.4771 0.288384L14.4771 0.288021ZM27.0075 26.4772C24.0309 30.4887 24.839 36.0625 26.0407 40.0314C26.1944 40.5393 25.6849 40.9221 25.4712 41.0568H10.476C10.0317 40.6249 10.0968 39.9498 10.6808 38.7835C11.7927 36.5633 12.0563 34.8638 11.4642 33.7315C10.7828 32.43 9.25811 32.5359 7.9122 32.6301C7.0103 32.6937 6.0784 32.7582 5.53303 32.4056C4.54787 31.7697 4.7608 29.6548 4.92572 28.8938V28.8934C4.95929 28.7394 4.91387 28.5791 4.80459 28.4655C4.48299 28.1067 4.2111 27.7065 3.99582 27.2756C4.27693 26.9872 4.61696 26.7631 4.99253 26.6189C5.18608 26.5396 5.30457 26.3427 5.2835 26.1347C5.26244 25.9267 5.10741 25.7575 4.90201 25.7183C4.31708 25.6439 3.80823 25.2828 3.5449 24.7551C4.07025 23.716 4.11304 22.4984 3.66175 21.4249C3.59888 21.2847 3.47182 21.1843 3.32106 21.1553C2.24473 20.947 1.12946 20.2265 0.954692 19.9134C1.19169 19.5991 1.45799 19.3081 1.74996 19.0441C2.41059 18.4092 3.02946 17.7321 3.60247 17.0174C4.73088 15.5806 4.67788 13.6991 4.62647 11.8791C4.61956 11.6395 4.61298 11.3999 4.60903 11.1625C4.50896 5.19808 9.72855 2.11401 14.6468 1.21658C21.8734 -0.0997482 28.3747 3.46413 30.8302 10.089C32.6728 15.0617 31.3871 20.5759 27.008 26.4771L27.0075 26.4772Z" fill="#D67F33"/>
<path d="M14.472 14.0989C14.4734 14.9076 14.7953 15.6825 15.3677 16.2536C15.9401 16.825 16.716 17.1453 17.5248 17.1446C18.3332 17.1439 19.1084 16.822 19.6798 16.2499C20.2512 15.6775 20.5722 14.902 20.5718 14.0932C20.5715 13.2848 20.2499 12.5093 19.6779 11.9379C19.1061 11.3661 18.3306 11.0448 17.5218 11.0448C16.7127 11.0464 15.9372 11.3687 15.3654 11.9415C14.794 12.5139 14.4724 13.2897 14.472 14.0989ZM19.6278 14.0989C19.6268 14.6571 19.404 15.1924 19.0086 15.5863C18.6133 15.9803 18.0774 16.2015 17.5191 16.2009C16.9609 16.1999 16.4256 15.9777 16.0313 15.5824C15.637 15.1874 15.4155 14.6518 15.4158 14.0932C15.4165 13.535 15.6383 12.9997 16.0333 12.6051C16.4283 12.2104 16.9635 11.9889 17.5218 11.9889C18.0807 11.9899 18.6166 12.2127 19.0113 12.6084C19.406 13.0041 19.6278 13.54 19.6278 14.0989L19.6278 14.0989Z" fill="#D67F33"/>
<path d="M27.7069 8.22296C27.326 7.6117 26.7124 7.18244 26.0077 7.03439C24.8454 6.72168 23.2532 6.82702 21.4497 7.28554C20.591 4.26973 19.166 2.33093 17.5218 2.33093C15.878 2.33093 14.453 4.26973 13.5939 7.28588C11.7905 6.82735 10.1979 6.72169 9.03563 7.03439C8.33088 7.18252 7.71703 7.61176 7.33614 8.22297C6.51717 9.64792 7.48229 11.8497 9.66071 14.0989C7.4826 16.348 6.51716 18.5498 7.33648 19.9748V19.9751C7.71732 20.586 8.33091 21.0153 9.03563 21.1634C9.53629 21.2898 10.0511 21.3504 10.5676 21.3438C11.59 21.3234 12.6064 21.1782 13.5936 20.9113C14.4524 23.9274 15.8774 25.8666 17.5215 25.8666C19.1656 25.8666 20.5907 23.9274 21.4497 20.9113V20.9116C22.4369 21.1782 23.4533 21.3234 24.4757 21.3438C24.9919 21.3504 25.507 21.2898 26.0077 21.1634C26.7121 21.0153 27.3261 20.5861 27.7069 19.9751C28.5262 18.5501 27.561 16.3484 25.383 14.0992C27.5611 11.8497 28.5262 9.64757 27.7069 8.22297V8.22296ZM17.5216 3.27493C18.6131 3.27493 19.776 4.88323 20.5344 7.54058C19.5055 7.86184 18.4992 8.25124 17.5216 8.70547C16.5443 8.25123 15.5377 7.86213 14.5091 7.54091C15.2675 4.88323 16.4304 3.27493 17.5216 3.27493ZM21.3679 14.0989C21.3679 14.8537 21.3376 15.5792 21.2846 16.2754C20.7076 16.6697 20.094 17.0591 19.4396 17.4366C18.8014 17.805 18.1592 18.1398 17.5216 18.4456C16.884 18.1398 16.2417 17.805 15.6035 17.4366H15.6038C14.9498 17.0591 14.3362 16.67 13.7591 16.2757C13.7062 15.5792 13.6759 14.8537 13.6759 14.0989C13.6759 13.3442 13.7062 12.6191 13.7591 11.9225C14.3362 11.5282 14.9497 11.1391 15.6038 10.7616C16.2444 10.3919 16.8875 10.0621 17.5275 9.75535C18.1631 10.0605 18.8033 10.3943 19.4395 10.7616C20.0936 11.1391 20.7072 11.5282 21.2842 11.9225C21.3372 12.619 21.3678 13.3442 21.3678 14.0989H21.3679ZM22.2748 12.6315C22.8834 13.0904 23.4677 13.5802 24.0253 14.0989C23.4677 14.618 22.8834 15.1079 22.2748 15.5664C22.2982 15.0861 22.3117 14.597 22.3117 14.0989C22.3117 13.6009 22.2982 13.1121 22.2748 12.6315ZM19.911 18.2544H19.9114C20.3436 18.0049 20.7616 17.7494 21.1658 17.4881C21.0727 18.2445 20.9407 18.9957 20.7705 19.7389C20.0812 19.5243 19.3653 19.2606 18.6349 18.9506C19.0598 18.732 19.4851 18.4999 19.9111 18.2544H19.911ZM16.4088 18.9506C15.6787 19.2603 14.9624 19.5243 14.2735 19.7386C14.103 18.9957 13.971 18.2445 13.8781 17.4881C14.283 17.7488 14.701 18.0042 15.1323 18.2544C15.5579 18.4999 15.9832 18.7317 16.4087 18.9506L16.4088 18.9506ZM12.7689 15.5668C12.1606 15.1079 11.5763 14.6181 11.0184 14.099C11.5764 13.5802 12.1606 13.0904 12.7689 12.6316C12.7455 13.1118 12.732 13.6006 12.732 14.099C12.732 14.5974 12.7455 15.0862 12.7689 15.5668ZM13.8778 10.7106C13.971 9.95381 14.103 9.20237 14.2735 8.45939C14.9637 8.67434 15.681 8.93865 16.4128 9.24939C15.9865 9.46861 15.5592 9.69804 15.1327 9.94426C14.7001 10.1934 14.2821 10.4489 13.8778 10.7106L13.8778 10.7106ZM19.9115 9.94426C19.4875 9.6997 19.0629 9.47158 18.6389 9.25335C19.369 8.9436 20.0826 8.67961 20.7716 8.46499L20.7719 8.46532C20.9417 9.20628 21.0731 9.95583 21.1659 10.7106C20.761 10.4499 20.343 10.1945 19.9114 9.9443L19.9115 9.94426ZM8.15462 8.69308C8.41466 8.30302 8.82052 8.03376 9.28101 7.94554C10.2882 7.67464 11.7208 7.7826 13.3587 8.20097V8.2013C13.1191 9.25497 12.9509 10.3241 12.8551 11.4005C11.972 12.021 11.1313 12.7004 10.3393 13.4337C8.4206 11.4502 7.61055 9.63947 8.15465 8.69308H8.15462ZM9.28101 20.2527V20.2524C8.82051 20.1645 8.41467 19.8953 8.15462 19.5052C7.61051 18.5589 8.42058 16.7481 10.3393 14.7645C11.1313 15.4979 11.972 16.1774 12.8551 16.7978C12.9509 17.8741 13.1191 18.943 13.3587 19.9966C11.7205 20.4153 10.288 20.523 9.28098 20.2524L9.28101 20.2527ZM17.522 24.9233C16.4295 24.9233 15.2653 23.312 14.5072 20.6497H14.5069C15.5365 20.3301 16.5438 19.9423 17.522 19.4891C18.4999 19.9424 19.5072 20.3301 20.5368 20.6497C19.7784 23.3117 18.6142 24.9229 17.5217 24.9229L17.522 24.9233ZM26.8891 19.5052C26.629 19.8953 26.2232 20.1645 25.7627 20.2524C24.7551 20.5227 23.3229 20.415 21.6853 19.9967V19.997C21.9246 18.943 22.0928 17.8742 22.1886 16.7978C23.072 16.1773 23.9124 15.4979 24.7043 14.7645C26.6231 16.7481 27.4331 18.5585 26.889 19.5052L26.8891 19.5052ZM24.7044 13.4337C23.9124 12.7004 23.072 12.0209 22.1886 11.4005C22.0928 10.3244 21.9249 9.25598 21.6853 8.20265C22.5938 7.95413 23.529 7.81752 24.4704 7.7958C24.9059 7.78955 25.3403 7.83991 25.7627 7.94557C26.2232 8.03346 26.629 8.30304 26.8891 8.6931C27.4332 9.63941 26.6231 11.4502 24.7044 13.4338L24.7044 13.4337Z" fill="#D67F33"/>
</svg>
