<svg width="64" height="64" viewBox="0 0 64 64" fill="none" xmlns="http://www.w3.org/2000/svg">
<rect width="64" height="64" rx="12" fill="#2059C7"/>
<path fill-rule="evenodd" clip-rule="evenodd" d="M27.1647 15.4703L37.2947 12.756C40.1289 11.9965 43.0232 13.0923 44.6882 15.2988L22.0332 21.3692C22.3719 18.6258 24.3305 16.2297 27.1647 15.4703ZM14.8051 36.8775L16.6147 43.6309L23.368 41.8213C25.2329 41.3216 26.3396 39.4047 25.8399 37.5398C25.3403 35.6749 23.4234 34.5682 21.5585 35.0679L14.8051 36.8775ZM45.8577 17.6997L17.9321 25.1823C14.706 26.0468 12.7916 29.3627 13.656 32.5888L14.1266 34.3452L14.1267 34.3451L20.8801 32.5356C24.1437 31.6611 27.4982 33.5979 28.3727 36.8614C29.2471 40.125 27.3104 43.4795 24.0468 44.354L17.2935 46.1635L17.2933 46.1636L17.7639 47.9197C18.6283 51.1458 21.9443 53.0602 25.1703 52.1958L47.2546 46.2783C50.4807 45.4139 52.3952 42.098 51.5307 38.8719L45.8577 17.6997Z" fill="white"/>
</svg>
