<svg width="64" height="64" viewBox="0 0 64 64" fill="none" xmlns="http://www.w3.org/2000/svg">
<rect width="64" height="64" rx="12" fill="#FFC530"/>
<path d="M29.1698 31.3276C29.5674 30.248 29.965 29.1684 30.3689 28.103C31.7205 24.5379 33.0785 20.9871 34.4301 17.422C34.8806 16.2337 35.7894 15.8455 36.9681 16.2903C41.7085 18.1263 46.4426 19.9481 51.183 21.7842C52.4907 22.2907 52.896 23.1995 52.4052 24.525C50.6108 29.2579 48.8165 33.9908 47.008 38.73C46.5264 40.0003 45.6381 40.3965 44.3571 39.9121C42.4773 39.184 40.5975 38.4559 38.7177 37.7278C37.4649 37.2309 37.0787 36.3646 37.5525 35.1148C37.8399 34.3567 38.121 33.5844 38.4225 32.82C38.8342 31.7341 39.8071 31.3003 40.9042 31.7135C41.3537 31.8876 41.8173 32.0554 42.259 32.25C42.5373 32.3813 42.6375 32.3026 42.7385 32.0362C43.4157 30.219 44.0852 28.4223 44.8033 26.6209C44.9353 26.2726 44.8142 26.1904 44.5281 26.0796C42.7631 25.4195 41.0122 24.7531 39.2628 24.052C38.9091 23.9033 38.7758 23.9457 38.6424 24.3287C37.6049 27.1577 36.5266 29.971 35.4624 32.778C35.3678 33.0585 35.2527 33.3312 35.1376 33.6038C35.0671 33.6352 35.0171 33.6746 35.0473 33.7803C34.8873 33.8005 34.8266 33.9298 34.7328 34.0227C33.3447 35.4588 31.155 35.3626 29.8904 33.8155C29.3369 33.1429 29.1768 32.329 29.1359 31.479C29.1514 31.438 29.1747 31.3765 29.1903 31.3355L29.1698 31.3276Z" fill="white"/>
<path opacity="0.7" d="M34.5394 35.1814L30.4302 46.02C29.8942 47.4337 29.0623 47.8047 27.6588 47.2728L13.4784 41.7805C12.2933 41.3215 11.8803 40.4331 12.3308 39.2448C14.1562 34.4299 15.9958 29.6088 17.8275 24.8081C18.2533 23.7159 19.1699 23.3072 20.2669 23.7204C22.2221 24.4659 24.1773 25.2115 26.1184 25.9633C27.2831 26.4144 27.6806 27.3437 27.2456 28.4911C26.9427 29.2902 26.6397 30.0892 26.3368 30.8883C25.9124 31.9458 25.0163 32.3624 23.9446 32.0061C23.4401 31.8224 22.9293 31.6246 22.4326 31.4204C22.2283 31.3413 22.1373 31.3648 22.0519 31.5902C21.3591 33.4484 20.6459 35.2987 19.9327 37.1489C19.855 37.3538 19.8853 37.4595 20.1037 37.5324C21.9567 38.2383 23.802 38.9648 25.6614 39.685C26.1109 39.8591 26.0654 39.4537 26.1353 39.2693C26.9354 37.159 27.7496 35.0424 28.5497 32.932C28.6833 33.3832 28.8986 33.866 29.2675 34.3144C30.4392 35.7669 32.3369 36.2316 33.9866 35.496C34.184 35.408 34.3751 35.3057 34.5394 35.1814Z" fill="white"/>
</svg>
