<svg width="64" height="64" viewBox="0 0 64 64" fill="none" xmlns="http://www.w3.org/2000/svg">
<g clip-path="url(#clip0_566_1833)">
<rect width="64" height="64" rx="12" fill="#20CD7F"/>
<g clip-path="url(#clip1_566_1833)">
<path fill-rule="evenodd" clip-rule="evenodd" d="M18.5778 23.7455L42.2654 15.416C45.9658 14.1147 49.5611 17.5957 48.38 21.3362L40.8194 45.2804C39.4748 49.539 33.5355 49.7717 31.8668 45.6311L28.8563 38.1609C28.7982 38.0168 28.7334 37.8763 28.6623 37.7398L34.3189 31.8974C34.8952 31.3023 34.8798 30.3526 34.2847 29.7764C33.6895 29.2001 32.7399 29.2155 32.1636 29.8106L26.507 35.653C26.3682 35.5863 26.2257 35.526 26.0798 35.4726L18.5163 32.7048C14.324 31.1707 14.3648 25.227 18.5778 23.7455ZM15.4126 43.5179C14.8174 42.9416 14.8021 41.992 15.3784 41.3968L18.1608 38.5231C18.737 37.9279 19.6866 37.9126 20.2818 38.4889C20.877 39.0651 20.8923 40.0147 20.316 40.6099L17.5337 43.4836C16.9574 44.0788 16.0078 44.0941 15.4126 43.5179ZM21.1254 46.9616C20.5491 47.5568 20.5645 48.5064 21.1596 49.0827C21.7548 49.6589 22.7044 49.6436 23.2807 49.0484L26.0631 46.1747C26.6393 45.5795 26.624 44.6299 26.0288 44.0537C25.4336 43.4774 24.484 43.4927 23.9078 44.0879L21.1254 46.9616Z" fill="white"/>
</g>
</g>
<defs>
<clipPath id="clip0_566_1833">
<rect width="64" height="64" rx="12" fill="white"/>
</clipPath>
<clipPath id="clip1_566_1833">
<rect width="48" height="48" fill="white" transform="translate(-0.695312 31.402) rotate(-45.925)"/>
</clipPath>
</defs>
</svg>
