<svg width="64" height="64" viewBox="0 0 64 64" fill="none" xmlns="http://www.w3.org/2000/svg">
<rect width="64" height="64" rx="12" fill="#47C0F0"/>
<path fill-rule="evenodd" clip-rule="evenodd" d="M19.5879 19.6165C20.7773 18.9604 22.0973 18.6146 23.442 18.6146H26.4541C28.5874 18.6146 30.5773 19.4777 32.0952 20.9371C33.6246 19.4663 35.62 18.6146 37.7363 18.6146H41.5583C42.903 18.6146 44.223 18.9604 45.4124 19.6165L49.0851 21.6426C50.7682 22.5711 51.7606 24.4166 51.7606 26.3554V37.5643C51.7606 40.3626 49.6759 42.8616 46.8335 42.8616H39.5834C38.9924 43.499 38.2306 43.9873 37.32 44.2385L30.9958 45.9829C28.4028 46.6981 25.6692 46.4545 23.2221 45.2974L16.1809 41.968C14.345 41.0999 13.2397 39.1644 13.2397 37.1193V26.3554C13.2397 24.4166 14.2321 22.5711 15.9152 21.6426L19.5879 19.6165ZM30.3981 23.0392C29.3237 21.9233 27.914 21.3021 26.4541 21.3021H23.442C22.5614 21.3021 21.6869 21.5279 20.886 21.9697L17.2134 23.9958C16.4686 24.4066 15.9272 25.2991 15.9272 26.3554V37.1193C15.9272 38.2371 16.5305 39.1605 17.3297 39.5384L24.371 42.8679C26.2428 43.753 28.3156 43.9343 30.2811 43.3922L36.6054 41.6477C37.9525 41.2761 38.8383 39.4352 38.0348 37.8099L34.8051 31.2769L33.595 32.612C32.0174 34.3527 29.3996 34.3527 27.8219 32.612C26.4249 31.0706 26.314 28.6718 27.5325 26.9914L30.3981 23.0392Z" fill="white"/>
</svg>
