<svg width="64" height="64" viewBox="0 0 64 64" fill="none" xmlns="http://www.w3.org/2000/svg">
<g clip-path="url(#clip0_566_1805)">
<rect width="64" height="64" rx="12" fill="#DE459F"/>
<path fill-rule="evenodd" clip-rule="evenodd" d="M45.8912 23.7555L33.328 16.7016C32.8382 12.8251 37.7212 10.5263 40.4993 13.5256L41.8242 14.956C42.1258 15.2816 42.5232 15.5047 42.9583 15.5927L44.8693 15.9792C48.8764 16.7897 49.4559 22.1555 45.8912 23.7555ZM32.0479 19.4234L44.2338 26.2655C45.8193 28.8312 46.4224 31.9673 45.7667 35.0631L44.03 43.2628C42.3525 51.1827 33.4746 55.2032 26.4155 51.2397L20.0018 47.6386C12.9428 43.6752 11.7533 34.0022 17.642 28.4466L23.7385 22.6949C26.0403 20.5233 29.0319 19.4055 32.0479 19.4234ZM36.1021 28.0074C36.3049 27.6462 36.1765 27.189 35.8153 26.9862C35.4541 26.7834 34.9969 26.9118 34.7942 27.273L33.6663 29.2817C31.5927 28.4805 29.1978 29.07 28.1241 30.9824C26.9304 33.1084 27.9824 35.777 30.1851 37.0138C31.835 37.9401 32.3717 39.7578 31.6727 41.0028C30.9736 42.2478 29.1423 42.7359 27.4924 41.8095C25.8426 40.8832 25.3059 39.0655 26.0049 37.8205C26.2077 37.4593 26.0793 37.0021 25.7181 36.7993C25.357 36.5966 24.8998 36.725 24.697 37.0861C23.6232 38.9986 24.3667 41.3502 26.1304 42.7035L25.0026 44.7122C24.7998 45.0734 24.9282 45.5305 25.2893 45.7333C25.6505 45.9361 26.1077 45.8077 26.3105 45.4466L27.4383 43.4379C29.512 44.2391 31.9068 43.6496 32.9806 41.7371C34.1743 39.6112 33.1222 36.9426 30.9195 35.7058C29.2697 34.7795 28.7329 32.9618 29.432 31.7168C30.131 30.4718 31.9623 29.9837 33.6122 30.91C35.2621 31.8364 35.7988 33.654 35.0997 34.8991C34.8969 35.2602 35.0253 35.7174 35.3865 35.9202C35.7477 36.123 36.2049 35.9946 36.4077 35.6334C37.4814 33.721 36.7379 31.3694 34.9743 30.016L36.1021 28.0074Z" fill="white"/>
</g>
<defs>
<clipPath id="clip0_566_1805">
<rect width="64" height="64" rx="12" fill="white"/>
</clipPath>
</defs>
</svg>
