<svg width="64" height="64" viewBox="0 0 64 64" fill="none" xmlns="http://www.w3.org/2000/svg">
<path fill-rule="evenodd" clip-rule="evenodd" d="M32 64C49.6731 64 64 49.6731 64 32C64 14.3269 49.6731 0 32 0C14.3269 0 0 14.3269 0 32C0 49.6731 14.3269 64 32 64ZM26.9801 24.7C28.7995 22.8409 31.3049 21.7 34.0461 21.7C36.8303 21.7 39.3552 22.8658 41.1812 24.7715C42.1364 25.7684 43.719 25.8022 44.7159 24.8469C45.7128 23.8917 45.7466 22.3091 44.7913 21.3122C42.0739 18.4762 38.2662 16.7 34.0461 16.7C28.3206 16.7 23.3837 19.9488 20.8479 24.7H18.4649C17.0842 24.7 15.9649 25.8193 15.9649 27.2C15.9649 28.5807 17.0842 29.7 18.4649 29.7H19.1989C19.0875 30.4508 19.0298 31.219 19.0298 32C19.0298 32.781 19.0875 33.5492 19.1989 34.3H18.465C17.0843 34.3 15.965 35.4193 15.965 36.8C15.965 38.1807 17.0843 39.3 18.465 39.3H20.8479C23.3837 44.0511 28.3206 47.3 34.0461 47.3C38.2662 47.3 42.0739 45.5238 44.7913 42.6878C45.7466 41.6908 45.7128 40.1083 44.7159 39.153C43.719 38.1978 42.1364 38.2316 41.1812 39.2285C39.3552 41.1342 36.8303 42.3 34.0461 42.3C31.3049 42.3 28.7995 41.1591 26.9801 39.3H33.7911C35.1718 39.3 36.2911 38.1807 36.2911 36.8C36.2911 35.4193 35.1718 34.3 33.7911 34.3H24.2794C24.1162 33.5618 24.0298 32.7921 24.0298 32C24.0298 31.2078 24.1162 30.4382 24.2794 29.7H33.791C35.1717 29.7 36.291 28.5807 36.291 27.2C36.291 25.8193 35.1717 24.7 33.791 24.7H26.9801Z" fill="white"/>
</svg>
