<svg width="64" height="64" viewBox="0 0 64 64" fill="none" xmlns="http://www.w3.org/2000/svg">
<path d="M10 2C10 0.89543 10.8954 0 12 0H52C53.1046 0 54 0.89543 54 2C54 4.1501 53.9525 6.19646 53.8619 8.14359C59.6051 9.03825 64 14.0059 64 20C64 26.6274 58.6274 32 52 32C51.0844 32 50.1913 31.8971 49.3322 31.7019C46.1729 39.1631 41.8197 42.8108 38 43.7498V52.4384L43.7014 53.8638C44.4772 54.0578 45.2065 54.4048 45.8462 54.8847L53.2 60.4C53.8887 60.9165 54.1696 61.8158 53.8974 62.6325C53.6251 63.4491 52.8609 64 52 64H12C11.1391 64 10.3749 63.4491 10.1026 62.6325C9.83041 61.8158 10.1113 60.9165 10.8 60.4L18.1538 54.8847C18.7935 54.4048 19.5228 54.0578 20.2986 53.8638L26 52.4384V43.7498C22.1803 42.8108 17.8271 39.1631 14.6678 31.7019C13.8087 31.8971 12.9156 32 12 32C5.37258 32 0 26.6274 0 20C0 14.0059 4.39485 9.03825 10.1381 8.14359C10.0475 6.19646 10 4.1501 10 2ZM10.396 12.1608C6.7464 12.9036 4 16.1311 4 20C4 24.4183 7.58172 28 12 28C12.434 28 12.8591 27.9656 13.273 27.8996C11.9435 23.7015 10.9225 18.5179 10.396 12.1608ZM50.727 27.8996C51.1409 27.9656 51.566 28 52 28C56.4183 28 60 24.4183 60 20C60 16.1311 57.2536 12.9036 53.604 12.1608C53.0775 18.5179 52.0565 23.7015 50.727 27.8996Z" fill="white"/>
</svg>
