<svg width="64" height="64" viewBox="0 0 64 64" fill="none" xmlns="http://www.w3.org/2000/svg">
<path d="M27.3588 6.04855C29.3624 2.37476 34.6375 2.37477 36.6411 6.04856L41.5341 15.0205C42.2945 16.4147 43.6413 17.3932 45.2022 17.6855L55.2471 19.5666C59.3602 20.3368 60.9903 25.3538 58.1154 28.3946L51.0946 35.8206C50.0036 36.9745 49.4892 38.5578 49.6935 40.1327L51.0086 50.2672C51.5471 54.417 47.2794 57.5176 43.4991 55.7232L34.2669 51.3407C32.8323 50.6597 31.1676 50.6597 29.733 51.3407L20.5008 55.7232C16.7205 57.5176 12.4528 54.417 12.9913 50.2672L14.3064 40.1327C14.5107 38.5578 13.9963 36.9745 12.9053 35.8206L5.88447 28.3945C3.00962 25.3538 4.63973 20.3368 8.75285 19.5666L18.7977 17.6855C20.3586 17.3932 21.7054 16.4147 22.4658 15.0205L27.3588 6.04855Z" fill="white"/>
</svg>
